<?xml version="1.0" encoding="UTF-8"?>
<svg width="330.94" height="131.25" version="1.1" viewBox="0 0 330.9375 131.25" xmlns="http://www.w3.org/2000/svg">
 <path d="m134.96 130.91c-0.23319-0.22389-5.026-0.67723-10.651-1.0074-5.6248-0.33018-10.51-0.7755-10.857-0.9896-1.0836-0.6697-47.772-0.62655-58.604 0.0542-7.2679 0.45672-14.464 0.18929-24.375-0.90583-7.7344-0.85462-16.277-1.7827-18.984-2.0624s-4.9219-0.97241-4.9219-1.5394-1.0399-3.6303-2.311-6.8074c-3.5296-8.8227-4.6669-18.018-3.3084-26.75 1.1611-7.4639 2.2852-9.3736 8.6123-14.631 3.544-2.945 21.975-14.395 23.172-14.395 2.9758 0 0.0075 2.2892-11.399 8.7908-4.3774 2.4951-5.4217 3.8551-3.462 4.5084 1.7716 0.59052-0.12143 3.3944-3.3147 4.9097-3.9189 1.8596-4.2319 1.8478-4.2701-0.16197-0.02597-1.3659-0.34583-1.2627-1.9103 0.61624-1.5184 1.8236-1.7617 3.04-1.2673 6.3366 0.39974 2.6656 0.2158 4.5569-0.53064 5.4563-3.3842 4.0778 1.0237 27.669 5.1698 27.669 2.0142 0 1.6907-2.6039-0.49282-3.9676-2.5471-1.5907-2.3567-2.5949 0.49195-2.5949 1.6685 0 2.6326 0.69866 3.2672 2.3678 1.0479 2.7562 3.6079 4.0518 4.6558 2.3562 0.51475-0.83288 0.9121-0.87259 1.367-0.13661 0.98207 1.589 3.3727 1.2679 2.7446-0.36866-0.79224-2.0645 0.50071-1.7137 2.5913 0.70313 1.6703 1.931 1.9168 1.9765 2.9138 0.53873 0.99144-1.4297 1.2673-1.3634 3.0739 0.73917 1.8431 2.145 1.7957 1.7297-0.66499-5.8199-2.1787-6.6844-2.672-9.9177-2.7748-18.187-0.06878-5.5315 0.17192-10.538 0.53488-11.125 1.646-2.6634 2.0849-0.35608 1.677 8.816-0.37107 8.3433-0.1114 11.01 1.666 17.109 1.1581 3.9741 2.746 7.8584 3.5288 8.6318 1.2677 1.2526 1.3634 1.2014 0.87606-0.46875-0.30092-1.0312-1.4204-4.8281-2.4877-8.4375-1.6664-5.6353-1.8525-7.9864-1.3173-16.641 0.34281-5.543 0.98512-10.078 1.4274-10.078 0.90819 0 1.0808 2.1206 0.72475 8.9062-0.47535 9.0603-0.38002 11.291 0.681 15.938 1.517 6.6432 1.8536 7.2361 5.5352 9.7497 3.1279 2.1356 3.3572 2.1646 4.522 0.57159 1.0815-1.4791 1.2942-1.5031 1.7932-0.20275 0.46814 1.22 2.32 1.4681 10.698 1.4336 5.5723-0.023 10.61-0.4275 11.194-0.899 0.68771-0.55491 1.2559-0.35286 1.6112 0.57294 0.30185 0.78659 1.6167 1.4302 2.922 1.4302 1.7482 0 2.3732-0.4938 2.3732-1.875 0-1.0312 0.42188-1.875 0.9375-1.875s0.9375 0.64605 0.9375 1.4357c0 1.9023 2.5084 2.7963 4.1119 1.4655 0.70152-0.58221 1.9061-0.81656 2.6769-0.52077 1.2377 0.47495 1.2457-0.0435 0.06856-4.437-0.73309-2.7361-1.3849-7.7169-1.4486-11.068-0.11169-5.8844 1.812-15.938 3.0497-15.938 1.5508 0 1.6543 1.4169 0.29531 4.0448-3.0878 5.9712-0.03107 28.914 4.2974 32.253 0.83982 0.64801 4.319 1.1421 8.0426 1.1421 5.6782 0 6.3398-0.169 4.9099-1.2542-0.99004-0.75136-3.548-1.163-6.3803-1.0269-5.6956 0.27386-6.8721-0.69306-8.8187-7.2481-2.2513-7.5809-1.8691-17.131 0.96465-24.105 1.3169-3.2408 2.263-6.0236 2.1026-6.184-0.16043-0.16043-6.933-0.48293-15.05-0.71666-9.5578-0.27522-15.239-0.8235-16.121-1.5559-0.74949-0.62202-2.7536-1.0344-4.4535-0.91634-7.6497 0.53116-14.888-0.076552-14.648-1.2298 0.13415-0.64453-0.91536-2.9003-2.3323-5.0127-2.6708-3.982-5.5945-15.141-4.3975-16.784 0.61-0.83744 1.4297-4.6358 2.2527-10.439 0.35581-2.5089 3.8942-7.551 6.1439-8.755 0.93394-0.49983 3.7523-1.5859 6.2629-2.4136 2.5107-0.82763 13.544-6.0077 24.519-11.511 27.298-13.689 30.725-15.468 32.202-16.709 0.70497-0.59276 4.024-2.4694 7.3755-4.1702 5.8639-2.9758 6.5889-3.1071 19.219-3.4792 7.2188-0.21272 25.469-0.42062 40.555-0.46201 21.476-0.058913 27.683 0.19136 28.594 1.153 0.95828 1.0116-3.0799 1.1447-22.896 0.75429-15.883-0.31289-24.388-0.1458-25.025 0.49165-0.57641 0.57641-7.8832 1.0472-18.128 1.1681-16.031 0.1891-21.121 0.91036-23.256 3.2951-1.0335 1.1544-20.911 12.321-25.712 14.444-2.8227 1.2483-7.6083 3.7209-10.635 5.4946-3.0264 1.7737-7.1605 3.759-9.1871 4.4118-2.0265 0.65278-4.7393 1.7413-6.0284 2.4189-1.2891 0.67763-5.2949 2.5926-8.9019 4.2555s-6.0562 3.1908-5.4426 3.3953 1.955-0.07737 2.9809-0.62644c2.7375-1.4651 3.7473-1.2248 3.2262 0.76778-0.28935 1.1065-1.0582 1.6101-2.0585 1.3486-0.87814-0.22964-2.3837 0.45218-3.3457 1.5152-1.7364 1.9187-4.271 2.6205-4.271 1.1827 0-0.4125 0.52734-1.2801 1.1719-1.928 0.94004-0.94496 0.70821-1.01-1.1719-0.32868-5.9763 2.1657-8.1153 18.2-3.7457 28.078 1.9991 4.5192 4.9004 5.2659 5.4515 1.403 0.42288-2.9641 1.6844-2.6056 2.8778 0.81768 0.74111 2.1259 1.4302 2.7589 2.5398 2.3331 1.0435-0.40042 1.3676-0.17987 1.0297 0.70069-0.32983 0.85952 0.17888 1.2511 1.5362 1.1825 1.485-0.07503 2.1089-0.79412 2.326-2.6807 0.34659-3.0122 1.6144-3.3966 2.3187-0.70312 0.37557 1.4362 1.2788 1.875 3.8593 1.875 2.744 0 3.369-0.34784 3.369-1.875 0-2.192 1.6893-2.5122 2.4735-0.46875 0.82854 2.1591 5.7116 1.8033 6.4328-0.46875 0.753-2.3725 2.3438-2.4467 2.3438-0.10934 0 1.6883 2.3301 2.8798 5.6889 2.909 1.3171 0.01147 1.2984-0.64565-0.18033-6.3153-1.88-7.2084-2.3532-19.339-0.73333-18.799 0.60676 0.20226 1.1269 3.5823 1.2744 8.2813 0.14189 4.5205 0.85993 9.3116 1.6674 11.126 1.356 3.0464 1.4132 2.6805 1.3037-8.3475-0.07671-7.7259 0.23007-11.652 0.9292-11.893 0.71866-0.2477 0.9646 1.7681 0.7897 6.4725-0.31879 8.5746 0.4838 17.614 1.5639 17.614 0.45178 0 0.82141-0.63281 0.82141-1.4062 0-0.77344 0.42188-1.4062 0.9375-1.4062s0.9375 0.63281 0.9375 1.4062c0 2.2248 4.6285 2.1548 5.906-0.08923 0.98983-1.7388 2.5315-1.6845 2.5315 0.08923 0 1.7714 7.0753 1.9815 7.8906 0.23438 0.43749-0.9375 0.65625-0.9375 1.0937 0 0.84505 1.8108 6.6974 1.4586 7.7899-0.46875 0.87096-1.5366 1.0178-1.5217 2.3151 0.23438 1.0878 1.4726 2.4718 1.875 6.4482 1.875 3.6228 0 5.5428 0.47943 6.7494 1.6853 2.3921 2.3907 2.8127 1.3624 0.93107-2.2763-2.0617-3.9869-2.5661-25.22-0.61501-25.89 0.89487-0.30714 1.077 0.61617 0.72195 3.66-0.44172 3.787-0.39777 3.89 0.63044 1.4767 1.0874-2.5522 3.5214-3.0843 2.6071-0.57001-0.25781 0.70898-0.46716 5.4023-0.46521 10.43 2e-3 5.0273-0.30541 9.1406-0.68302 9.1406-0.88095 0 1.0923 4.6552 2.8811 6.7969 0.75365 0.90234 1.7268 1.6406 2.1625 1.6406 1.1933 0 0.95162-2.6031-0.27974-3.0136-0.79196-0.26399-0.77253-0.91676 0.0744-2.4993 0.99625-1.8615 1.29-1.9553 2.2438-0.71634 1.3056 1.696 6.1427 1.0467 6.8998-0.92606 0.6604-1.721 2.1664-1.6348 2.1664 0.12401 0 1.0156 1.0417 1.4062 3.75 1.4062s3.75-0.39062 3.75-1.4062c0-0.77344 0.63281-1.4062 1.4062-1.4062s1.4062 0.63281 1.4062 1.4062c0 1.4896 0.66025 1.6803 5.1562 1.489 4.19-0.17824 4.4345-0.16317 7.7344 0.47671 1.967 0.38142 3.0469 0.22084 3.0469-0.4531 0-0.57415 0.63281-1.0439 1.4062-1.0439s1.4062 0.79209 1.4062 1.7602c0 2.2146 2.2216 4.1167 4.3304 3.7078 2.3533-0.45632 2.7349-2.6996 0.55608-3.2694-2.6463-0.69202-4.8222-9.2918-4.5173-17.853 0.20792-5.8373 0.54725-7.0037 2.5137-8.6407 2.6942-2.2429 5.5546-2.5254 5.5546-0.5486 0 0.9375-0.9375 1.4062-2.8125 1.4062-3.0758 0-3-0.26047-3 10.312 0 7.6565 0.13526 8.5804 1.1631 7.9452 0.53659-0.33164 0.71821-1.414 0.40358-2.4053-0.75489-2.3786 1.2912-12.102 2.5466-12.102 0.59173 0 0.7395 1.022 0.37278 2.5781-1.4081 5.9752-1.6689 10.323-0.65668 10.949 0.57511 0.35544 1.0456 1.6131 1.0456 2.7948s0.46314 3.4771 1.0292 5.1009c0.83555 2.3969 1.5411 2.9524 3.75 2.9524 1.4964 0 2.7208-0.42188 2.7208-0.9375s-0.37674-0.9375-0.8372-0.9375c-1.2762 0-1.901-2.3533-1.0083-3.7977 0.65472-1.0593 1.1035-1.0035 2.5652 0.31939 2.2938 2.0759 6.6953 2.0561 8.2997-0.03727 1.0987-1.4335 1.3746-1.4631 2.1858-0.23438 0.66266 1.0037 2.6244 1.4062 6.8536 1.4062h5.9252l-1.1696-3.2812c-1.4441-4.0513-1.5321-5.625-0.31442-5.625 0.51562 0 0.9375 0.80956 0.9375 1.799 0 2.3957 2.995 7.5626 4.3879 7.57 0.60867 0.0033 1.2415 0.95515 1.4062 2.1153 0.36116 2.543 3.1126 2.4121 5.8725-0.2795 2.1705-2.1167 1.1885-3.6353-1.3326-2.0609-2.8366 1.7715-5.4084-1.1842-7.5485-8.6752-2.0036-7.0133-2.768-17.398-1.5354-20.859 0.57331-1.6098 0.40322-2.1094-0.71821-2.1094-0.80819 0-1.4694 0.36456-1.4694 0.81013 0 0.94652-7.2873 3.8774-9.6407 3.8774-2.8115 0-1.7326-1.6432 1.4739-2.2447 1.6958-0.31812 6.4326-2.2913 10.526-4.3848 4.2687-2.183 7.5851-3.3803 7.7762-2.8072 0.43103 1.2931 3.6328 1.2959 4.4313 0.0039 0.33833-0.54743 1.5234-1.3902 2.6334-1.8728 3.0786-1.3384 5.6866-3.0979 6.518-4.3975 0.41234-0.64454 1.538-1.1719 2.5014-1.1719 2.7505 0 4.7176-1.0191 4.7176-2.4441 0-0.75777 0.9557-1.3059 2.2768-1.3059 1.2522 0 2.9096-0.63281 3.683-1.4062 0.77344-0.77344 1.8456-1.4062 2.3827-1.4062 1.3686 0 12.687-5.7859 13.046-6.6691 0.16221-0.39908 0.86788-0.50574 1.5681-0.23703 0.70026 0.26871 2.1496-0.3878 3.2207-1.4589s2.7396-1.9475 3.7077-1.9475c0.96811 0 2.2432-0.58197 2.8335-1.2933 0.59033-0.7113 2.2956-1.5377 3.7894-1.8365 1.6543-0.33085 2.9641-1.3248 3.3506-2.5424 0.45529-1.4345 1.1679-1.8597 2.5228-1.5054 1.3365 0.3495 2.0289-0.044044 2.3696-1.3468 0.33885-1.2958 1.0002-1.6759 2.2342-1.2843 1.2438 0.39478 1.608 0.17866 1.2538-0.74422-0.68785-1.7925 3.6362-3.7592 5.0834-2.312 1.5278 1.5278 1.2546 4.602-0.60898 6.8516-1.7838 2.1534-4.4983 3.7989-26.638 16.148-5.8335 3.2538-9.5518 5.6339-8.2627 5.2891 1.2891-0.34481 3.3984-1.1733 4.6875-1.8412 1.2891-0.66784 4.4531-2.3088 7.0312-3.6466s6.5859-3.6657 8.9062-5.1731c5.9417-3.86 7.4733-3.7338 7.6111 0.62753 0.0611 1.9336 0.0454 4.031-0.035 4.6609-0.18866 1.4793 2.1702 1.9388 13.049 2.5423 11.455 0.63546 18.909 1.5596 18.508 2.2946-3.4149 6.2608-5.2577 11.892-5.712 17.455-0.38007 4.654-0.26027 6.0854 0.41195 4.9219 1.4009-2.4248 3.0293-2.0244 2.3746 0.58397-0.45866 1.8275 0.10898 2.687 3.1796 4.815 2.0559 1.4247 3.738 2.9296 3.738 3.3442s-2.3535 2.3611-5.23 4.3256c-8.2717 5.6491-16.315 12.183-15.724 12.774 0.2974 0.2974-0.68382 1.3017-2.1805 2.2319-4.3896 2.728-17.115 12.536-17.881 13.782-0.38683 0.62924-2.0439 1.6852-3.6824 2.3466s-3.7078 2.0077-4.5984 2.9918c-0.89064 0.98413-2.1242 1.7893-2.7412 1.7893-0.61706 0-2.3862 1.1602-3.9314 2.5781-1.5452 1.418-4.7899 4.0547-7.2103 5.8594s-8.2624 6.5693-12.982 10.588c-5.7414 4.8885-9.2187 7.2131-10.507 7.024-1.0589-0.15549-2.3722 0.28986-2.9184 0.98966-0.79664 1.0207-5.6187 1.2334-24.375 1.0752-25.928-0.21868-31.064-0.17413-60.927 0.52855-11.368 0.26749-20.861 0.30317-21.094 0.0793zm-91.361-4.3471c0.34224-0.55375-0.69041-0.93162-2.5228-0.92315-2.3478 0.0109-2.7602 0.23535-1.696 0.92315 1.8224 1.1777 3.4909 1.1777 4.2188 0zm158.91-0.50985c0-0.79604 0.52734-1.3789 1.1719-1.2952 2.8614 0.37156 3.627-0.11718 3.0469-1.945-0.68455-2.1568 1.1761-2.6282 1.991-0.50444 0.28926 0.75382 1.3612 1.6357 2.3821 1.9597 1.1007 0.34934 1.6498 1.127 1.3491 1.9107-0.36616 0.95418 0.26653 1.3216 2.2759 1.3216 1.5307 0 2.7831-0.42187 2.7831-0.9375 0-0.51562-0.88888-0.9375-1.9753-0.9375-1.293 0-1.8041-0.44626-1.4795-1.292 0.27268-0.7106 0.0295-1.7583-0.54033-2.3281-1.9375-1.9375 0.24176-2.3344 2.3582-0.4295 3.5822 3.2242 7.8264 3.7078 5.2452 0.59762-1.8393-2.2162 0.0466-2.5892 2.3152-0.45793 2.4866 2.336 6.3132 2.9473 4.4583 0.71217-1.8213-2.1945 0.58091-2.7145 2.709-0.58641 1.0501 1.0501 2.9639 1.9092 4.2529 1.9092 1.4583 0 2.3438 0.53125 2.3438 1.4062 0 0.77344 0.67794 1.4062 1.5066 1.4062 0.95399 0 1.3086-0.51578 0.96692-1.4062-0.38986-1.016 0.10269-1.4062 1.7747-1.4062 1.2729 0 2.3143 0.42187 2.3143 0.9375 0 1.8404 2.1373 0.88723 5.0298-2.2431 1.6164-1.7493 3.7283-3.3314 4.693-3.5156 1.0263-0.19602 2.2043-1.6964 2.8392-3.6163 0.85735-2.5927 1.5293-3.2331 3.2023-3.0518 1.5641 0.1695 2.6435-0.66244 4.1316-3.1845 1.504-2.5491 2.1484-3.0405 2.5436-1.9398 0.69408 1.9331 3.2441 0.18767 4.2206-2.8889 0.38819-1.2231 1.3573-2.0852 2.2458-1.9978 3.0395 0.29895 3.7099-0.0879 4.3124-2.4887 0.48794-1.9441 0.86844-2.2112 1.9139-1.3435 1.0324 0.85684 1.6342 0.58046 2.8817-1.3235 0.86724-1.3236 2.394-2.4065 3.3927-2.4065 1.1792 0 2.1635-0.99694 2.8071-2.8432 0.72214-2.0715 1.4297-2.704 2.6071-2.3303 1.1043 0.35049 1.9561-0.23351 2.69-1.8443 0.65448-1.4364 1.8486-2.3572 3.0569-2.3572 1.1944 0 2.1778-0.74555 2.4732-1.875 0.26968-1.0312 1.0455-1.875 1.724-1.875 0.67856 0 1.5015-0.84375 1.8288-1.875 0.67224-2.118 1.9518-2.4559 2.663-0.70312 0.67809 1.6712 2.4603-1.025 2.4789-3.75 0.0147-2.1669 1.8388-3.0426 1.9528-0.9375 0.0349 0.64453 0.50658 0.25552 1.0482-0.86447 0.66928-1.384 1.7485-1.9847 3.3689-1.875 1.9822 0.13414 2.5304-0.3875 3.2513-3.0935 0.7364-2.7643 1.0049-3.0086 1.7815-1.6209 1.1815 2.1111 2.6742 1.174 2.6742-1.6789 0-1.4019 0.69377-2.4454 1.875-2.8203 2.102-0.66713 2.4726-1.9883 0.72148-2.572-0.63444-0.21148-2.2165 0.60177-3.5156 1.8072-1.2992 1.2054-3.2059 2.4569-4.2371 2.7811-2.194 0.68961-22.566 15.676-25.312 18.62-1.0312 1.1057-3.7734 3.2129-6.0938 4.6827-2.3203 1.4697-7.5938 5.4195-11.719 8.7773-4.125 3.3578-7.976 6.4554-8.5578 6.8837-0.58181 0.42826-2.2196 0.33697-3.6395-0.20287-2.8111-1.0688-6.084-0.46207-6.084 1.1278 0 0.62288 1.4089 0.80878 3.75 0.49478 4.4628-0.59858 4.7604 0.14318 0.93157 2.3219-1.6826 0.95744-2.8066 2.3654-2.8066 3.5156 0 1.4358-0.60673 1.9186-2.4112 1.9186-3.1103 0-11.862 4.9998-9.5356 5.4477 2.0344 0.3918 2.0827 1.4505 0.13967 3.0631-1.2748 1.058-1.7424 0.91196-3.1794-0.99299-2.8709-3.8061-4.2492-16.893-1.7792-16.893 0.45549 0 0.82816-0.61797 0.82816-1.3733s0.84375-1.8248 1.875-2.3767c1.2712-0.68034 1.875-0.69097 1.875-0.033 0 1.2809 6.2747 1.2571 7.0682-0.02681 0.41751-0.67555-0.47199-0.79312-2.7572-0.36442-2.7391 0.51386-3.3735 0.3488-3.3735-0.87771 0-2.2003-2.3572-1.8476-4.0019 0.59879-0.77997 1.1602-1.677 1.8615-1.9934 1.5584-0.72351-0.69287 1.9808-6.2134 3.5134-7.1721 0.62813-0.39294 2.7947-2.7607 4.8146-5.2617s6.1724-6.2979 9.2278-8.4375 6.7291-4.734 8.1636-5.7652c4.6108-3.3145 14.396-10.133 17.776-12.386 1.8047-1.2031 4.7185-3.4436 6.4751-4.979s3.5496-2.7916 3.9844-2.7916c0.43482 0 1.5917-0.73828 2.5709-1.6406s3.2879-2.6953 5.1304-3.9844c3.7201-2.6026 4.5835-4.275 1.2924-2.5032-2.54 1.3674-9.0446 5.5215-14.635 9.3469-3.4742 2.3771-3.9322 2.5052-3.0476 0.85246 0.57252-1.0698 6.4202-5.5391 12.995-9.9318 6.5746-4.3927 13.22-9.0596 14.766-10.371 2.4436-2.0714 2.5666-2.3841 0.9375-2.3836-1.0312 3.14e-4 -3.4774 0.44554-5.4358 0.9894-2.7573 0.76569-3.4438 1.3578-3.042 2.6237 0.3662 1.1538-0.59942 2.4475-3.2816 4.3966-2.0903 1.5189-5.1882 3.8164-6.8844 5.1054-1.6962 1.2891-5.6975 3.8203-8.8919 5.625s-10.449 6.2344-16.121 9.8438-14.096 8.8643-18.719 11.678-8.4058 5.4021-8.4058 5.753c0 1.1061 5.4509 1.4912 7.2164 0.50982 0.92939-0.5166 3.7922-2.5975 6.3617-4.6243s5.6281-4.0486 6.7969-4.4929c1.1687-0.44436 2.125-1.2118 2.125-1.7054s0.80673-1.1536 1.7927-1.4665c0.986-0.31294 3.3643-1.8179 5.2852-3.3444s3.9618-2.7631 4.5354-2.748c1.3371 0.03523-3.3354 4.0842-10.246 8.8788-2.9728 2.0625-8.1418 5.7551-11.487 8.2059-5.7527 4.2148-6.3462 4.434-10.969 4.0521-2.6877-0.2221-6.5307 0.0066-8.54 0.50805-2.0093 0.50152-6.5357 0.87679-10.059 0.83392-4.2065-0.05118-6.1991 0.25623-5.804 0.89544 0.33087 0.53536 2.3696 0.97984 4.5306 0.98774s4.5368 0.39887 5.2795 0.86883c1.6025 1.014-21.21 0.75644-23.417-0.26435-1.155-0.5342-1.7005 0.4985-2.741 5.189-0.71451 3.2207-1.856 6.923-2.5367 8.2272-1.6692 3.1983-1.578 13.363 0.15712 17.516 1.5649 3.7454 1.917 7.7953 0.55387 6.371-1.5642-1.6344-3.8352-11.016-3.831-15.826 2e-3 -2.6524 1.029-7.651 2.324-11.314 3.4942-9.8845 3.5113-9.8438-4.125-9.8438-3.5717 0-6.6275-0.42926-6.8029-0.95566-0.20676-0.62027-2.2905-0.6918-5.9375-0.2038-3.0904 0.41352-8.9939 0.41354-13.119 4.3e-5 -6.3498-0.63652-15.901-1.012-19.805-0.77864-0.58008 0.03468-1.0721 1.0123-1.0934 2.1724-0.0213 1.1602-0.9489 4.8516-2.0614 8.2031-2.0855 6.2831-2.5855 15.665-1.1215 21.044 0.95557 3.5114 8.3104 8.0437 9.7417 6.0031 0.6916-0.98604 0.99347-1.007 1.3637-0.0945 0.67235 1.657 4.0693 1.4613 4.0693-0.23438 0-0.77344 0.63281-1.4062 1.4062-1.4062s1.4062 0.42187 1.4062 0.9375 1.0547 0.9375 2.3438 0.9375c1.4583 0 2.3438-0.53125 2.3438-1.4062 0-0.77344 0.42188-1.4062 0.9375-1.4062 0.51563 0 0.9375 0.43092 0.9375 0.9576s1.0952 1.4566 2.4337 2.0665c2.0722 0.94417 2.5722 0.8614 3.3662-0.55732 0.89343-1.5964 1.0096-1.5964 2.775 9.4e-4 1.5533 1.4057 2.1428 1.48 3.7549 0.47319 1.5908-0.99346 2.1856-0.94704 3.537 0.27598 0.89355 0.80866 2.3165 1.4703 3.162 1.4703 0.98139 0 1.3422 0.50857 0.99775 1.4062-0.4257 1.1094 0.22382 1.3852 3.0763 1.3065 3.5557-0.0981 3.5736-0.11649 1.0735-1.1059-2.7009-1.0689-3.9477-3.0195-2.9559-4.6243 0.37035-0.59924 0.92986-0.38658 1.4559 0.55335 0.86979 1.5542 3.5737 2.1418 3.5737 0.77664 0-0.4125-0.52734-1.2773-1.1719-1.9218-2.0981-2.0979-1.4483-17.441 1.0482-24.75 1.1887-3.4805 2.5917-6.3281 3.1178-6.3281 0.52608 0 0.74642 0.54746 0.48966 1.2166-2.1551 5.6162-4.4701 16.446-4.2955 20.094 0.11766 2.4588 1.0692 6.5506 2.1144 9.0929 1.3834 3.3646 1.5923 4.7251 0.76768 5-0.62306 0.20769-1.1328 0.75109-1.1328 1.2076 0 0.45647 0.63281 0.58712 1.4062 0.29032s1.4062-0.0726 1.4062 0.49817c0 0.5708 0.42188 1.0378 0.9375 1.0378 0.51563 0 0.9375-0.65131 0.9375-1.4474zm35.312-9.4902c-0.34375-0.34375-0.625-1.0609-0.625-1.5938 0-0.58744 0.43666-0.53209 1.1094 0.14062 0.61016 0.61016 0.89141 1.3274 0.62501 1.5938-0.26641 0.26641-0.76563 0.20313-1.1094-0.14062zm40.84-56.738c0.46714-1.4014 2.5979-2.173 2.5979-0.94078 0 0.50343-0.66806 1.1717-1.4846 1.485-0.91304 0.35037-1.3416 0.14085-1.1133-0.54423zm-67.969 67.109c-0.31153-0.31152-1.1201-0.34482-1.7969-0.074-0.74787 0.29927-0.52573 0.52142 0.56641 0.5664 0.98827 0.0407 1.542-0.18087 1.2305-0.49239zm14.785-0.37109c-0.31868-0.51563-1.5843-0.9375-2.8125-0.9375s-2.4938 0.42187-2.8125 0.9375c-0.34549 0.55901 0.78996 0.9375 2.8125 0.9375s3.158-0.37849 2.8125-0.9375zm-71.719-0.99577c0-0.48358-1.3711-0.87277-3.0469-0.86488-1.7835 8e-3 -2.5766 0.31325-1.9127 0.73516 1.6689 1.0606 4.9596 1.1467 4.9596 0.12972zm17.617-0.53867c-0.94594-0.94595-2.1815-1.2862-3.2215-0.88708-1.435 0.55067-1.4809 0.77776-0.30707 1.5201 0.75898 0.48 2.2086 0.87918 3.2215 0.88708 1.7053 0.0133 1.728-0.0992 0.30707-1.5201zm8.6327 0.59694c0-0.51563-1.0547-0.9375-2.3438-0.9375s-2.3438 0.42187-2.3438 0.9375 1.0547 0.9375 2.3438 0.9375 2.3438-0.42187 2.3438-0.9375zm-67.031-0.9375c-0.31868-0.51563-1.6341-0.9375-2.9232-0.9375-1.3238 0-2.0916 0.40799-1.7644 0.9375 0.31868 0.51563 1.6341 0.9375 2.9232 0.9375 1.3238 0 2.0916-0.40799 1.7644-0.9375zm7.5 0c-0.31868-0.51563-1.1873-0.9375-1.9303-0.9375s-1.3509 0.42187-1.3509 0.9375 0.86865 0.9375 1.9303 0.9375 1.6696-0.42187 1.3509-0.9375zm5.1892-0.87587c-1.2961-2.4218-1.2275-2.8741 0.43577-2.8741 0.77344 0 1.4062 0.42187 1.4062 0.9375s1.2261 0.9375 2.7247 0.9375c2.2632 0 2.6417-0.31762 2.2344-1.875-0.26968-1.0312-0.0476-1.875 0.49334-1.875 0.54101 0 1.2515 0.84375 1.5788 1.875 0.68876 2.1701 4.2188 2.5623 4.2188 0.46875 0-2.0419 0.72489-1.7547 3.647 1.4446 2.4931 2.7296 2.6005 2.7595 2.5253 0.70313-0.0432-1.1812-0.40907-2.3923-0.81302-2.6912-0.75622-0.55954-4.4218-14.924-4.4218-17.328 0-0.74078 0.42187-1.3469 0.9375-1.3469 0.51562 0 0.9375 1.2656 0.9375 2.8125s0.42187 2.8125 0.9375 2.8125c0.51562 0 0.9375-1.5007 0.9375-3.3349 0-4.097 1.8711-11.93 3.034-12.701 1.1417-0.75715 0.50573-6.9818-0.69025-6.7556-0.91463 0.17302-1.6465 2.7621-2.7988 9.9008-0.3121 1.9336-1.0172 3.5156-1.5668 3.5156-0.61488 0-0.78855-1.1722-0.45141-3.0469 1.983-11.026 2.0589-10.54-1.8335-11.735-2.3461-0.72005-3.9267-0.77647-4.6618-0.16642-1.8233 1.5132-9.0725 0.53946-12.707-1.707-1.8641-1.1521-3.7613-2.0818-4.2161-2.0662-0.45478 0.01568-0.0886 0.45852 0.81377 0.98408 4.8554 2.828-2.181 4.6124-18.188 4.6124-4.6555 0-5.4836 0.25484-5.4836 1.6875 0 0.92812-0.44351 2.131-0.98558 2.6731-1.6317 1.6317-3.6816 10.767-3.6498 16.264 0.04102 7.0709 2.6428 14.511 5.1041 14.596 1.0312 0.0354 2.8975 0.40353 4.1473 0.81801 1.7226 0.57129 2.5862 0.32889 3.5698-1.0019 1.2065-1.6324 1.3609-1.6436 2.2023-0.15965 1.2184 2.1487 13.987 2.3438 13.987 0.2137 0-2.0534 1.5904-1.593 2.1713 0.62851 0.31544 1.2062 0.94162 1.7056 1.616 1.2888 0.77318-0.47786 0.91274-0.0872 0.46868 1.3119-0.50792 1.6003-0.24446 1.9924 1.3388 1.9924 1.6583 0 1.8171-0.2878 1.0007-1.8134zm8.4045 0.87587c0-0.51563-0.39698-0.9375-0.88217-0.9375s-1.1429 0.42187-1.4616 0.9375 0.0783 0.9375 0.88217 0.9375 1.4616-0.42187 1.4616-0.9375zm28.809 0.37109c-0.31153-0.31152-1.1201-0.34482-1.7969-0.074-0.74787 0.29927-0.52573 0.52142 0.56641 0.5664 0.98827 0.0407 1.542-0.18087 1.2305-0.49239zm-91.621-1.3086c0-0.51563-1.0796-0.9375-2.3991-0.9375-1.3607 0-2.1483 0.40579-1.8197 0.9375 0.31867 0.51563 1.3983 0.9375 2.3991 0.9375s1.8197-0.42187 1.8197-0.9375zm7.9688 0c-0.31867-0.51563-1.5843-0.9375-2.8125-0.9375s-2.4938 0.42187-2.8125 0.9375c-0.34549 0.55901 0.78996 0.9375 2.8125 0.9375s3.158-0.37849 2.8125-0.9375zm6.5625 0c-0.31867-0.51563-1.4232-0.9375-2.4544-0.9375s-1.6143 0.42187-1.2956 0.9375 1.4232 0.9375 2.4544 0.9375 1.6143-0.42187 1.2956-0.9375zm-59.062-0.9375c-0.31867-0.51563-0.97638-0.9375-1.4616-0.9375-0.4852 0-0.88217 0.42187-0.88217 0.9375s0.65771 0.9375 1.4616 0.9375c0.80387 0 1.2008-0.42187 0.88217-0.9375zm5.1562 0c0-0.51563-0.65771-0.9375-1.4616-0.9375-0.80387 0-1.2008 0.42187-0.88217 0.9375s0.97638 0.9375 1.4616 0.9375c0.4852 0 0.88217-0.42187 0.88217-0.9375zm18.281 0c-0.31867-0.51563-1.6341-0.9375-2.9232-0.9375-1.3238 0-2.0916 0.40799-1.7643 0.9375 0.31867 0.51563 1.6341 0.9375 2.9232 0.9375 1.3238 0 2.0916-0.40799 1.7643-0.9375zm5.625 0c0.31867-0.51563-0.31414-0.9375-1.4062-0.9375s-1.7249 0.42187-1.4062 0.9375 0.95149 0.9375 1.4062 0.9375 1.0876-0.42187 1.4062-0.9375zm8.4375 0c-0.31867-0.51563-1.8201-0.9375-3.3366-0.9375-1.5164 0-2.7572 0.42187-2.7572 0.9375s1.5015 0.9375 3.3366 0.9375c1.9857 0 3.102-0.37957 2.7572-0.9375zm-42.404-0.61494c-0.63472-0.2568-1.9003-0.27243-2.8125-0.0348-0.91216 0.23769-0.39284 0.4478 1.154 0.46691 1.5469 0.0191 2.2932-0.17537 1.6585-0.43218zm128.19 0.04527c0-0.77591-1.8204-1.2147-2.2377-0.53937-0.27076 0.4381 0.12196 0.79654 0.87272 0.79654 0.75075 0 1.365-0.11573 1.365-0.25717zm94.054-8.4538c-0.0907-0.45117-0.4121-1.454-0.71422-2.2285-0.323-0.828 0.21347-1.8846 1.3021-2.5644 1.5888-0.99222 1.7681-0.93904 1.2639 0.37493-0.49046 1.2781-0.1361 1.4259 2.1441 0.89405 1.5024-0.35042 3.9621-0.72922 5.466-0.84176 1.5039-0.11255 2.9028-0.71007 3.1088-1.3278 0.27109-0.8133-1.712-1.1095-7.1875-1.0736l-7.5619 0.0496v4.1986c0 2.963 0.34486 4.0721 1.1719 3.7689 0.64454-0.23633 1.0977-0.79883 1.007-1.25zm7.9994-9.6237c2.0048-1.2703-0.44185-2.2372-2.6588-1.0507-1.0419 0.55761-1.8944 1.2099-1.8944 1.4496 0 0.73573 3.2058 0.45488 4.5532-0.3989zm-5.4907-1.4538c0-0.22738-0.42188-0.67415-0.9375-0.99283-0.51563-0.31868-0.9375-0.13264-0.9375 0.41342 0 0.54605 0.42187 0.99283 0.9375 0.99283 0.51562 0 0.9375-0.18604 0.9375-0.41342zm11.25-3.3366c0-0.51562-0.60791-0.9375-1.3509-0.9375s-1.6117 0.42188-1.9303 0.9375c-0.31868 0.51562 0.28924 0.9375 1.3509 0.9375s1.9303-0.42188 1.9303-0.9375zm5.625 0c0-0.51562-0.84375-0.9375-1.875-0.9375s-1.875 0.42188-1.875 0.9375 0.84375 0.9375 1.875 0.9375 1.875-0.42188 1.875-0.9375zm6.0903-3.7434c0.70355-1.3605 3.1015-3.6987 5.3288-5.196s5.5703-4.0008 7.4289-5.5633c24.078-20.243 29.815-25.272 29.354-25.733-0.29851-0.29851-1.0821 0.19487-1.7413 1.0964s-1.6407 1.6392-2.1812 1.6392c-0.54043 0-3.3131 1.8984-6.1616 4.2188s-5.4055 4.2188-5.6824 4.2188c-0.27692 0-2.7312 2.0558-5.4539 4.5684-5.2604 4.8545-14.741 12.808-20.811 17.46-2.5642 1.9651-3.7051 3.5765-3.7785 5.3371-0.084 2.013 0.14958 2.3106 1.157 1.4745 0.69421-0.57614 1.8378-2.1607 2.5414-3.5212zm-8.905-2.4383c2.5793-1.8531 4.6897-3.7866 4.6897-4.2969 0-1.2294-0.6559-0.89513-5.8444 2.9786-3.8903 2.9045-5.4124 4.6875-4.0015 4.6875 0.25662 0 2.5769-1.5161 5.1562-3.3692zm5.094 0.08794c1.9135-1.8047 3.2593-3.2812 2.9906-3.2812-0.70318 0-9.02 5.6799-9.02 6.1602 0 1.3824 3.0606-0.07903 6.0294-2.8789zm-13.036 0.83496c1.2665-0.82984 2.0698-1.8857 1.7851-2.3463-0.54637-0.88403-2.3563-0.11896-5.5601 2.3503-1.7061 1.315-1.7243 1.4478-0.20139 1.4749 0.92048 0.01641 2.7098-0.64914 3.9763-1.479zm-0.87741-4.8124c-0.65016-0.65016-2.4288 0.67082-2.4288 1.8038 0 0.62165 0.53792 0.55053 1.4289-0.18892 0.7859-0.65224 1.2358-1.379 0.99987-1.6149zm24.499-4.5179c0.7462-0.19746 0.55581-3.7273-0.20948-3.8839-0.51562-0.10547-0.81002 0.60619-0.65422 1.5815 0.16448 1.0295-0.51474 2.2003-1.6195 2.7916-1.5652 0.83767-1.8056 0.765-1.3548-0.40959 0.34534-0.89994 0.0113-1.4279-0.90327-1.4279-1.9049 0-3.0409 1.8984-1.6502 2.7579 0.62318 0.38514 0.81328 1.4436 0.44424 2.4733-0.49479 1.3806 0.0975 1.1446 2.5417-1.0125 1.7528-1.5469 3.2853-2.8386 3.4057-2.8704zm-17.483 3.0813c-0.11596-1.121-1.4018-0.90388-1.8047 0.30469-0.20625 0.61875 0.13125 0.95625 0.75 0.75 0.61876-0.20625 1.0934-0.68086 1.0547-1.0547zm-57.006-4.1071c-0.63472-0.2568-1.9004-0.27244-2.8125-0.03473-0.91216 0.2377-0.39285 0.44781 1.154 0.46691 1.5469 0.01911 2.2932-0.17537 1.6585-0.43218zm63.498-0.32256c0-0.51562-0.39698-0.9375-0.88217-0.9375s-1.1429 0.42188-1.4616 0.9375 0.0783 0.9375 0.88217 0.9375 1.4616-0.42188 1.4616-0.9375zm-94.688-1.875c0-0.51562-1.5015-0.9375-3.3366-0.9375-1.9856 0-3.102 0.37958-2.7572 0.9375 0.31868 0.51562 1.8201 0.9375 3.3366 0.9375s2.7572-0.42188 2.7572-0.9375zm7.8867 0.37051c2.0604-0.79064 0.89874-2.2455-1.7929-2.2455-2.5089 0-3.9209 1.4617-2.1152 2.1897 1.6947 0.68324 2.2524 0.69121 3.9082 0.05585zm-27.574-1.2527c0-1.4739-1.8541-2.1388-4.272-1.532-3.4087 0.85553-2.769 2.4141 0.99079 2.4141 1.8047 0 3.2812-0.39698 3.2812-0.88217zm8.6897 0.26723c-0.63472-0.2568-1.9004-0.27244-2.8125-0.03473-0.91216 0.2377-0.39285 0.44781 1.154 0.46691 1.5469 0.01911 2.2932-0.17537 1.6585-0.43218zm-86.268-0.94345c-0.64453-0.26007-1.6992-0.26007-2.3438 0s-0.11719 0.47286 1.1719 0.47286c1.2891 0 1.8164-0.21279 1.1719-0.47286zm8.8867 0.05448c-0.31152-0.31152-1.1201-0.34483-1.7969-0.07402-0.74788 0.29927-0.52573 0.52142 0.56641 0.56641 0.98828 0.04071 1.542-0.18087 1.2305-0.49239zm7.2852-0.37109c1.5111-0.64935 1.2035-0.8185-1.5853-0.87161-1.9032-0.03624-3.721 0.35598-4.0397 0.87161-0.69915 1.1313 2.9924 1.1313 5.625 0zm18.281 0.10929c0-1.0482-4.8296-2.0119-6.0884-1.2148-0.51856 0.32836 0.32279 0.87246 1.8697 1.2091 4.1547 0.90418 4.2188 0.90427 4.2188 0.0057zm8.4375-0.10929c0-0.51562-1.0547-0.9375-2.3438-0.9375s-2.3438 0.42188-2.3438 0.9375 1.0547 0.9375 2.3438 0.9375 2.3438-0.42188 2.3438-0.9375zm90 0.10434c0-0.91726-6.4729-2.3815-7.2209-1.6334-0.25675 0.25676-0.18874 0.91677 0.15113 1.4667 0.74361 1.2032 7.0698 1.3524 7.0698 0.16671zm32.407-1.1121c1.7504-1.9341 1.7444-1.9414-1.0266-1.2664-1.5329 0.3734-3.6192 1.2488-4.6363 1.9453-1.738 1.1902-1.6762 1.2664 1.0266 1.2664 1.7198 0 3.5834-0.78194 4.6363-1.9453zm42.564-1.1016c-0.0242-2.5891-0.17686-2.7918-1.016-1.3493-0.54309 0.93366-0.75444 2.3048-0.46967 3.0469 0.86656 2.2582 1.5157 1.5165 1.4856-1.6976zm-182.78 1.1719c0-0.51562-1.0547-0.9375-2.3438-0.9375s-2.3438 0.42188-2.3438 0.9375 1.0547 0.9375 2.3438 0.9375 2.3438-0.42188 2.3438-0.9375zm113.9 0.01073c0.32845-0.53143-0.0479-0.6886-0.88217-0.36845-1.6241 0.62324-1.9213 1.2952-0.57277 1.2952 0.48519 0 1.1399-0.41704 1.4549-0.92676zm58.6-0.01073c0-0.51562-0.18604-0.9375-0.41342-0.9375s-0.67416 0.42188-0.99283 0.9375-0.13264 0.9375 0.41342 0.9375c0.54605 0 0.99283-0.42188 0.99283-0.9375zm-5.1562-1.875c0.31867-0.51562 0.15753-0.9375-0.3581-0.9375-0.51562 0-1.1982 0.42188-1.5169 0.9375s-0.15753 0.9375 0.3581 0.9375c0.51562 0 1.1982-0.42188 1.5169-0.9375zm-21.598-1.8175c0.29915-0.48402 2.9608-2.2491 5.9147-3.9225 2.954-1.6733 5.5818-3.2812 5.8396-3.5731s1.3125-1.045 2.3438-1.6736c16.209-9.8802 28.071-17.974 27.369-18.675-0.56844-0.56844-6.023 2.6968-16.622 9.9501-10.945 7.4902-12.018 8.18-14.966 9.6216-1.2891 0.63029-2.5639 1.4456-2.833 1.8118-0.82049 1.1166-7.5071 5.4661-8.4033 5.4661-0.4623 0-1.1013 0.42188-1.42 0.9375s0.0534 0.9375 0.82685 0.9375c0.77343 0 1.651-0.39601 1.9501-0.88003zm32.379-1.5744c0-0.77344-0.42188-1.1455-0.9375-0.82684-0.51563 0.31867-0.9375 1.2122-0.9375 1.9857 0 0.77344 0.42187 1.1455 0.9375 0.82684 0.51562-0.31867 0.9375-1.2122 0.9375-1.9857zm9.0374-0.82325c-0.8296-2.1619-2.4044-0.87434-1.7926 1.4655 0.33715 1.2892 0.81914 1.6232 1.4427 0.99958 0.51504-0.51504 0.67246-1.6244 0.34983-2.4651zm-49.35 1.4027c0-0.51562-0.63281-0.9375-1.4062-0.9375s-1.4062 0.42188-1.4062 0.9375 0.63281 0.9375 1.4062 0.9375 1.4062-0.42188 1.4062-0.9375zm35.374-0.9375c0.88298-1.0312 2.1409-1.875 2.7954-1.875 0.65447 0 1.7169-0.84375 2.3609-1.875 0.64402-1.0312 1.8078-1.8791 2.5861-1.8841 0.77831-5e-3 3.2674-1.4816 5.5314-3.2812 2.264-1.7997 4.6749-3.2722 5.3576-3.2722s1.6929-0.84375 2.2448-1.875 1.556-1.875 2.2314-1.875c0.67537 0 1.9915-0.84375 2.9248-1.875 2.3059-2.548 3.113-2.3553 2.5466 0.60809-0.29778 1.5577-0.11682 2.2619 0.48559 1.8896 1.2786-0.79024 2.1789-4.3727 1.0988-4.3727-1.4746 0-0.92028-1.6473 0.77301-2.2971 0.89251-0.34249 1.7714-0.17669 1.9531 0.36845 0.40824 1.2247 2.0491 1.3166 2.0491 0.11468 0-0.48206 0.45367-2.0641 1.0081-3.5156l1.0081-2.6392 1.1912 2.2159c1.1837 2.2019 1.2008 2.192 2.7042-1.5655 0.84704-2.117 2.3549-4.0486 3.4256-4.3884 1.6773-0.53236 2.766-2.3557 1.4066-2.3557-1.6074 0-8.1091 4.2419-12.15 7.9272-2.5781 2.3511-6.8934 5.563-9.5896 7.1375-2.6961 1.5745-5.1574 3.2758-5.4694 3.7808-0.31204 0.50491-2.1139 1.9403-4.0042 3.1898-1.8902 1.2495-5.2447 3.5527-7.4544 5.1183s-4.1875 2.8465-4.3953 2.8465c-0.20774 0-1.7634 1.2656-3.457 2.8125s-2.5593 2.8125-1.9237 2.8125c0.63558 0 1.878-0.84375 2.761-1.875zm-42.405 0c0.32309-0.52277-0.3782-0.93115-1.5853-0.92314-1.7415 0.01155-1.8898 0.19201-0.75846 0.92314 1.7444 1.1273 1.647 1.1273 2.3438 0zm14.531-3.9005c0-1.0723-1.621-0.9889-3.8379 0.19752-2.6586 1.4229-1.2692 2.9164 1.5276 1.6421 1.2706-0.57895 2.3103-1.4068 2.3103-1.8396zm47.625 1.838c1.7458-1.7458 1.3332-2.7851-0.97479-2.4558-1.1549 0.16477-2.2405 1.0379-2.4125 1.9402-0.35843 1.8806 1.7078 2.1951 3.3873 0.51562zm-55.594-1.6875c0.32725-0.52951-0.44057-0.9375-1.7644-0.9375-1.2891 0-2.6045 0.42188-2.9232 0.9375-0.32725 0.52951 0.44057 0.9375 1.7644 0.9375 1.2891 0 2.6045-0.42188 2.9232-0.9375zm-7.0312-0.9375c0-0.51562-1.0796-0.9375-2.3991-0.9375-1.3606 0-2.1483 0.40579-1.8197 0.9375 0.31868 0.51562 1.3983 0.9375 2.3991 0.9375s1.8197-0.42188 1.8197-0.9375zm82.462-3.7501c2.2993-2.0186 3.9868-3.8588 3.75-4.0894-0.23678-0.23062-2.5399 1.4303-5.118 3.6908-2.5781 2.2606-4.2656 4.1008-3.75 4.0894 0.51562-0.01138 2.8187-1.6723 5.118-3.6908zm-15.085 1.5545c0.57429-0.69197 0.77024-1.5321 0.43543-1.8669-0.70359-0.70359-3.125 1.0803-3.125 2.3023 0 1.2343 1.5062 0.99044 2.6896-0.43542zm-62.69-0.61687c0-0.51562-1.0547-0.9375-2.3438-0.9375s-2.3438 0.42188-2.3438 0.9375 1.0547 0.9375 2.3438 0.9375 2.3438-0.42188 2.3438-0.9375zm22.099-3.5156c9.9501-6.1834 11.417-7.0509 17.276-10.214 7.6987-4.1564 12.316-7.08 11.876-7.52-0.64205-0.64204-8.3778 2.6771-11.407 4.8944-1.5469 1.1322-4.5861 3.0604-6.7538 4.2848-12.321 6.9593-20.966 13.007-18.592 13.007 0.23952 0 3.6601-2.0039 7.6013-4.4531zm-30.537 2.5781c0-0.51562-0.18604-0.9375-0.41342-0.9375s-0.67415 0.42188-0.99283 0.9375-0.13264 0.9375 0.41342 0.9375c0.54605 0 0.99283-0.42188 0.99283-0.9375zm65.994-0.54709c0.35038-0.91304 0.14085-1.3416-0.54422-1.1133-1.4014 0.46714-2.173 2.5979-0.94079 2.5979 0.50343 0 1.1717-0.66806 1.485-1.4846zm-45.369-0.39041c0-0.51562-0.81885-0.9375-1.8197-0.9375s-2.0804 0.42188-2.3991 0.9375c-0.32861 0.53171 0.45902 0.9375 1.8197 0.9375 1.3195 0 2.3991-0.42188 2.3991-0.9375zm-7.9688-0.9375c-0.31868-0.51562-1.4232-0.9375-2.4544-0.9375s-1.6143 0.42188-1.2956 0.9375 1.4232 0.9375 2.4544 0.9375 1.6143-0.42188 1.2956-0.9375zm64.053-1.2496c0.17942-0.92509-0.29884-1.5629-1.1719-1.5629-0.86966 0-1.475 0.80156-1.475 1.9531 0 2.2847 2.1907 1.9618 2.6469-0.39019zm-71.084-0.25699c0-0.20265-0.86865-0.36845-1.9303-0.36845s-1.681 0.40345-1.3762 0.89656c0.50026 0.80944 3.3066 0.36123 3.3066-0.52811zm21.902-1.8688c5.5992-3.8048 21.013-12.562 22.11-12.562 0.54296 0 0.9872-0.42188 0.9872-0.9375s0.45133-0.9375 1.003-0.9375 2.8516-1.2719 5.1111-2.8264 6.0269-3.6489 8.372-4.6542c2.3452-1.0053 4.264-2.293 4.264-2.8617 0-1.5063-3.6408-0.18745-7.5 2.7168-4.0938 3.0808-9.0327 5.9173-16.875 9.6915-3.3516 1.613-7.1484 3.6569-8.4375 4.542-1.2891 0.88508-5.0676 3.0803-8.3967 4.8782-5.8455 3.1569-8.1205 5.3889-5.4928 5.3889 0.69671 0 2.8812-1.097 4.8543-2.4378zm-0.28962-4.6593c6.1599-3.3878 11.2-6.386 11.2-6.6628s-0.67978-0.24235-1.5106 0.07648c-1.0277 0.39438-1.3541 0.17182-1.021-0.69623 0.26928-0.70175-4.7278 1.7192-11.105 5.38s-11.613 6.9723-11.635 7.359c-0.10093 1.7292 3.6526 0.2737 14.072-5.4565zm44.012 5.7462c0-0.22738-0.42188-0.67415-0.9375-0.99283-0.51563-0.31867-0.9375-0.13263-0.9375 0.41342 0 0.54606 0.42187 0.99283 0.9375 0.99283 0.51562 0 0.9375-0.18604 0.9375-0.41342zm-55.219-4.9132c4.0583-2.414 7.2214-4.5464 7.0292-4.7386-0.31269-0.31269-15.371 7.6893-16.393 8.7111-0.2291 0.22911 0.12387 0.41656 0.78441 0.41656 0.66053 0 4.5214-1.9751 8.5796-4.3891zm64.594 2.4588c0-1.0617-0.42188-1.6696-0.9375-1.3509-0.51563 0.31867-0.9375 1.1873-0.9375 1.9303 0 0.74301 0.42187 1.3509 0.9375 1.3509 0.51562 0 0.9375-0.86865 0.9375-1.9303zm-76.875 0.055328c0-0.51562-0.42188-0.9375-0.9375-0.9375-0.51563 0-0.9375 0.42188-0.9375 0.9375s0.42187 0.9375 0.9375 0.9375c0.51562 0 0.9375-0.42188 0.9375-0.9375zm29.946-15.101c8.3648-3.8707 17.517-9.5464 16.137-10.007-0.6303-0.2101-1.6592 0.02321-2.2863 0.51847-0.6272 0.49526-9.5779 5.2262-19.89 10.513-19.43 9.9613-21.094 10.933-21.094 12.324 0 0.45702 4.7461-1.7307 10.547-4.8617 5.8008-3.1309 13.265-6.9503 16.587-8.4875zm-30.755 11.55c-0.67635-0.22545-1.6755 0.03582-2.2202 0.58061-0.69569 0.69569-0.32966 0.8177 1.2297 0.40991 1.2677-0.33151 1.6927-0.75647 0.99052-0.99052zm82.372 0.26978c0-0.77344-0.42188-1.4062-0.9375-1.4062-0.51563 0-0.9375 0.63281-0.9375 1.4062 0 0.77344 0.42187 1.4062 0.9375 1.4062 0.51562 0 0.9375-0.63281 0.9375-1.4062zm8.4375 0.99283c0-0.22738-0.42188-0.67415-0.9375-0.99283-0.51563-0.31867-0.9375-0.13263-0.9375 0.41342 0 0.54606 0.42187 0.99283 0.9375 0.99283 0.51562 0 0.9375-0.18604 0.9375-0.41342zm-92.846-9.196c0.0688-1.4359-1.782-0.636-3.1944 1.3805-2.4411 3.4852-1.7223 5.2797 0.85528 2.1352 1.268-1.5469 2.3206-3.1289 2.3391-3.5156zm6.775-0.69685c0.87176-1.5273 1.252-2.9826 0.84511-3.2342-1.1783-0.72821-4.7738 3.1205-4.7738 5.11 0 2.4792 1.9836 1.5321 3.9287-1.8758zm41.419-2.9954c7.6863-4.4148 5.7053-4.3062-2.8296 0.1551-4.0491 2.1165-6.2444 3.6227-4.8785 3.347s4.8346-1.8516 7.7081-3.5021zm20.532 0.43937c5.6045-4.9985 7.35-6.8253 6.5217-6.8253-0.50702 0-1.4701 0.66063-2.1402 1.4681-1.7003 2.0487-6.3818 4.3476-7.4762 3.6712-0.50049-0.30932-0.90997 0.14105-0.90997 1.0008 0 1.2096-0.58323 1.4426-2.5781 1.03-1.418-0.29325-2.0745-0.31173-1.4589-0.04106 0.61557 0.27066 0.89395 1.0791 0.61863 1.7966-0.68254 1.7787 4.8192 0.222 7.4231-2.1003zm-52.755-4.9408c0-1.6703-3.7583 1.3623-5.2488 4.2352-2.0462 3.944-1.568 4.0096 1.9756 0.2711 1.8002-1.8992 3.2731-3.927 3.2731-4.5063zm-14.062 4.5688c0-1.2026-1.2584-1.017-3.3186 0.48943-1.6855 1.2325-1.6365 1.286 0.75832 0.82821 1.4082-0.26919 2.5603-0.86213 2.5603-1.3176zm22.904-0.73692c-0.24664-0.24664-1.1767 0.31188-2.0667 1.2412-1.5462 1.6143-1.5262 1.6343 0.44844 0.44844 1.1367-0.68264 1.8649-1.443 1.6183-1.6896zm5.8874-2.5501c-0.57042-0.57042-4.4162 0.83214-4.4162 1.6106 0 0.44443 1.0565 0.3267 2.3477-0.26163s2.222-1.1954 2.0684-1.349zm-9.002-3.4005c0.68529-1.2467 0.55069-1.6406-0.56065-1.6406-1.3861 0-3.3256 3.521-3.2612 5.9204 0.0302 1.1241 2.1666-1.2683 3.8219-4.2798zm40.056-3.5265c3.2666-1.9414 5.5407-3.776 5.0537-4.077-0.81271-0.50228-12.57 5.9294-14.743 8.0648-1.8852 1.8529 3.7962-0.48542 9.6892-3.9877zm-34.908 3.0434c0.56734-0.37882 1.5314-1.638 2.1424-2.7981 0.90382-1.7163 0.86402-2.1094-0.21361-2.1094-1.458 0-2.8234 1.4613-3.7228 3.9844-0.61528 1.726 0.0665 2.0767 1.7941 0.92314zm6.4933-0.97646c-0.28865-0.28864-1.0451-5.94e-4 -1.6811 0.64011-0.919 0.92589-0.81132 1.0336 0.52481 0.52481 0.92458-0.35206 1.4449-0.87627 1.1562-1.1649zm40.18-1.8727c-0.54476-0.35868-1.4689-1.4959-2.0537-2.5272-0.88152-1.5545-1.0681-1.606-1.0918-0.30134-0.0324 1.7898 2.7151 4.9015 3.5716 4.045 0.3104-0.3104 0.11865-0.85784-0.4261-1.2165zm10.549-1.773c-0.99855-0.99855-3.4906-1.1736-2.8908-0.20307 0.2907 0.47036 1.2068 0.8552 2.0357 0.8552s1.2137-0.29346 0.85503-0.65214zm-46.705-2.8731c0.32929-2.308-0.71006-2.7206-2.4558-0.9748-1.6795 1.6795-1.365 3.7457 0.51562 3.3873 0.90235-0.17198 1.7754-1.2576 1.9402-2.4125zm5.8558-1.1953c2.1253-1.1374 2.4308-3.717 0.4401-3.717-0.7553 0-1.81 0.81602-2.3438 1.8134-1.6588 3.0995-1.1958 3.5624 1.9036 1.9036zm7.2039-6.139c-0.89339-0.8934-2.6845 0.55369-2.0187 1.631 0.39573 0.64032 0.92011 0.62414 1.5934-0.04915 0.55196-0.55196 0.74335-1.2638 0.4253-1.5818zm4.7345-0.578c1.5311-1.5311 1.4139-2.625-0.28125-2.625-0.77344 0-1.4062 0.17643-1.4062 0.39208 0 0.21564-0.25607 1.0594-0.56905 1.875-0.6714 1.7496 0.65452 1.96 2.2566 0.35792zm6.75-5.0241c0-0.74301-0.42188-1.3509-0.9375-1.3509-0.51563 0-0.9375 0.86865-0.9375 1.9303 0 1.0617 0.42187 1.6696 0.9375 1.3509 0.51562-0.31867 0.9375-1.1873 0.9375-1.9303zm6.5625-3.2259c0-0.51562-0.42188-0.9375-0.9375-0.9375-0.51563 0-0.9375 0.42188-0.9375 0.9375s0.42187 0.9375 0.9375 0.9375c0.51562 0 0.9375-0.42188 0.9375-0.9375zm-275.92 67.78c-0.64999-1.0517 1.842-4.9678 3.1612-4.9678s1.0434 1.1452-0.87736 3.6432c-0.946 1.2303-1.9737 1.8264-2.2838 1.3247zm7.7955-0.092813c0-0.98594 2.0362-3 3.033-3 0.43064 0 0.33142 0.84375-0.22048 1.875-0.9909 1.8515-2.8125 2.5801-2.8125 1.125zm191.25-18c0-2.0625 0.35272-3.75 0.78382-3.75 0.43109 0 0.84992 1.6875 0.93075 3.75 0.0808 2.0625-0.27191 3.75-0.78382 3.75s-0.93075-1.6875-0.93075-3.75zm-134.4-12.656c0.2968-0.77344 1.3382-1.4062 2.3143-1.4062 2.1538 0 2.3432 1.4562 0.29177 2.2434-2.3923 0.91801-3.1823 0.66424-2.6061-0.8372zm66.902-1.2313c0-0.66606 11.932-5.7999 13.48-5.7999 0.32055 0 0.58282 0.37701 0.58282 0.83781 0 0.81295-11.27 5.7247-13.135 5.7247-0.5102 0-0.92764-0.34316-0.92764-0.76258zm15 0.11711c0-0.4668 4.4523-2.6772 9.894-4.912s11.397-5.0835 13.235-6.3305c1.8375-1.247 3.6079-1.9976 3.9342-1.6681 1.0931 1.1039-4.852 4.9781-13.418 8.7436-9.4577 4.1577-13.645 5.4365-13.645 4.167zm14.062-0.10227c0-0.52305 1.937-1.611 4.3044-2.4177s6.4212-2.7691 9.0084-4.361c4.6343-2.8515 6.7264-3.1253 4.6362-0.60666-1.3325 1.6056-11.902 6.924-15.371 7.7342-1.5139 0.35361-2.5781 0.20962-2.5781-0.34882zm16.875-0.15046c0-0.75199 5.1962-3.4517 13.828-7.1844 2.3818-1.03 3.0399-1.059 3.0147-0.13311-0.0471 1.7353-16.843 9.0324-16.843 7.3175zm-73.125-0.97411c0-1.1213 5.7632-3.6779 6.8748-3.0496 0.8334 0.471-4.422 3.9845-5.9599 3.9845-0.50316 0-0.91484-0.42066-0.91484-0.93481zm-13.125-0.94019c0-0.51562 0.56474-0.9375 1.255-0.9375 0.69025 0 5.5786-2.1144 10.863-4.6986 11.932-5.8352 12.086-3.982 0.17546 2.1204-8.4556 4.3324-12.294 5.4299-12.294 3.5156zm30-0.02943c0-0.53181 0.73828-1.1932 1.6406-1.4698 0.90235-0.27658 3.4449-1.318 5.6501-2.3143 4.1709-1.8844 6.7898-2.3146 6.7466-1.1083-0.0294 0.82001-11.135 5.8879-12.865 5.8709-0.64453-0.0064-1.1719-0.44663-1.1719-0.97844zm-83.438-0.92243c-1.25-0.82057-1.25-1.0257 0-1.8463 0.77344-0.50773 2.58-0.9296 4.0145-0.9375s4.1228-0.64717 5.9739-1.4206c3.8305-1.6005 5.0116-1.7459 5.0116-0.61686 0 0.65794-11.749 5.8038-13.148 5.7588-0.24504-0.0079-1.0784-0.42977-1.8518-0.9375zm12.188 0.1298c0-0.99 8.602-4.8029 10.835-4.8029 1.2996 0 1.3735 0.25076 0.41454 1.4062-0.6419 0.77344-1.8537 1.4088-2.6929 1.412-0.83921 0.0032-2.7342 0.63599-4.2111 1.4062-3.0567 1.5942-4.346 1.7658-4.346 0.57842zm12.654-0.11242c0.82823-1.3401 10.493-5.628 12.686-5.628 3.5737 0 1.757 1.4325-5.0534 3.9844-7.5512 2.8295-8.4904 3.0318-7.6325 1.6436zm18.283 0.11649c0-1.1213 8.6529-4.7846 9.7296-4.1191 0.47656 0.29453-0.99031 1.5068-3.2597 2.6939-4.3924 2.2977-6.4699 2.7553-6.4699 1.4252zm65.625-2.9079c0-0.96634 4.8476-3.7741 6.5159-3.7741 2.0488 0 0.85915 1.5873-2.329 3.1076-3.8537 1.8377-4.1869 1.8908-4.1869 0.66646zm107.81-35.698c0-0.61912 2.6088-0.91769 7.0025-0.8014 3.8514 0.10194 6.7796 0.54597 6.5072 0.98674-0.72975 1.1808-13.51 1.0054-13.51-0.18534zm-45-0.96993c-3.3516-0.33836-6.5784-0.42964-7.1708-0.20285s-1.3556-0.038293-1.696-0.58907c-0.34275-0.55459-3.5224-1.0014-7.1261-1.0014-6.0564 0-8.6424-1.1668-4.8666-2.1957 1.5354-0.41841 40.418-1.0644 51.797-0.86054 25.747 0.46124 36.981 1.0308 37.267 1.8896 0.47657 1.4297-7.0602 1.7407-21.928 0.9049-7.1475-0.4018-14.472-0.80659-16.277-0.89953-1.8047-0.092939-8.7656-0.074137-15.469 0.041782-18.62 0.322-12.365 1.8235 8.3215 1.9976 9.8594 0.082955 18.309 0.53399 18.778 1.0023 0.96171 0.96171-31.923 0.893-41.63-0.08699z"/>
</svg>
