<?xml version="1.0" encoding="utf-8"?>
<svg xmlns="http://www.w3.org/2000/svg" xmlns:xlink="http://www.w3.org/1999/xlink" version= "1.1" width="1004px" height="717px" viewBox="28 829 1004 717">
<g id="layer1">
<g style="fill:rgb(201,73,122); fill-opacity:1.0; stroke-linejoin: miter">
<path d="M27.999,828.2254C27.793827,828.2254,27.597057,828.30695,27.451977,828.452C27.306896,828.5971,27.225393,828.7938,27.225393,828.999L27.226393,1546.0C27.226393,1546.4272,27.572748,1546.7736,28.0,1546.7736L1032.001,1546.7745C1032.2062,1546.7745,1032.403,1546.693,1032.548,1546.548C1032.693,1546.403,1032.7745,1546.2062,1032.7745,1546.001L1032.7736,829.0C1032.7736,828.57275,1032.4272,828.2264,1032.0,828.2264L27.999,828.2254 Z"/>
</g>
<g style="fill:rgb(0,0,0); fill-opacity:0.21960784; stroke-linejoin: miter">
<path d="M945.049,1453.8247L941.30884,1456.4592Q914.71796,1464.4208,785.69934,1469.1943Q655.7879,1473.9639,479.74005,1473.0624Q311.7253,1471.8025,210.99124,1465.6887Q178.7149,1463.7124,157.81958,1461.3821L140.25763,1458.9861Q125.78496,1456.5132,125.62225,1453.8248Q130.01573,1445.5748,245.62457,1440.0966Q361.2334,1434.6182,535.33575,1434.4098Q709.438,1434.618,825.04675,1440.0962Q940.6556,1445.5747,945.049,1453.8247"/>
</g>
<g style="fill:rgb(217,227,228); fill-opacity:1.0; stroke-linejoin: miter">
<path d="M671.66656,1114.4567L591.20575,1115.6094L591.25275,1151.1986C591.25275,1151.1986,590.4576,1151.2098,615.43176,1150.8525C619.0616,1150.9487,629.45807,1151.3721,632.8509,1153.1189C639.8946,1156.7451,645.51843,1157.7463,651.58276,1157.906L651.5839,1157.9741C652.1426,1157.9666,652.6869,1157.9452,653.2312,1157.9277C653.77826,1157.9293,654.32263,1157.935,654.87634,1157.9272L654.8752,1157.8588C660.9379,1157.5258,666.5301,1156.3635,673.46484,1152.5369C675.6676,1151.3225,680.91437,1150.6019,685.2858,1150.1848C715.04785,1151.4767,713.27295,1150.9602,713.6259,1175.6251C713.6259,1175.6251,720.58887,1178.2241,731.2722,1178.0709C741.9582,1177.9186,748.86786,1175.1205,748.86786,1175.1205C748.0113,1124.2751,741.52637,1113.4574,671.66656,1114.4567 Z"/>
</g>
<g style="fill:rgb(103,184,203); fill-opacity:1.0; stroke-linejoin: miter">
<path d="M753.7985,1180.2156C753.8571,1184.3148,751.05835,1187.6761,747.5477,1187.7264L714.9809,1188.1935C711.46857,1188.2434,708.5765,1184.9635,708.518,1180.864L708.518,1180.8646C708.4594,1176.7672,711.25586,1173.4036,714.769,1173.3531L747.3357,1172.8875C750.84607,1172.8363,753.7398,1176.1188,753.7985,1180.2156L753.7985,1180.2162 Z"/>
</g>
<g style="fill:rgb(103,184,203); fill-opacity:1.0; stroke-linejoin: miter">
<path d="M648.95636,1164.6259C649.0571,1171.656,643.5088,1177.4359,636.5638,1177.5356L636.5638,1177.5364C629.61584,1177.6356,623.90466,1172.0156,623.80396,1164.9857L622.94775,1105.1669C622.8473,1098.1371,628.3952,1092.3563,635.3431,1092.2568L635.34296,1092.2573C642.2893,1092.1575,647.9997,1097.7769,648.1006,1104.8068L648.95636,1164.6259 Z"/>
</g>
<g style="fill:rgb(255,255,255); fill-opacity:1.0; stroke-linejoin: miter">
<path d="M742.04443,1143.7543C737.34094,1131.7443,730.19116,1124.2982,714.57477,1123.0099C714.57477,1123.0099,724.1626,1128.6205,730.3065,1132.3464C735.9028,1135.7333,742.04443,1143.7543,742.04443,1143.7543 Z"/>
</g>
<g style="fill:rgb(217,227,228); fill-opacity:0.99607843; stroke-linejoin: miter">
<path d="M501.68518,1115.5972L551.60565,1115.4785L601.5258,1115.3606Q601.5681,1133.1815,601.61035,1151.0029Q551.6906,1151.1221,501.77008,1151.2413Q501.72754,1133.4192,501.68518,1115.5972"/>
</g>
<g style="fill:rgb(118,184,188); fill-opacity:1.0; stroke-linejoin: miter">
<path d="M504.594,1172.7839C524.2799,1172.7845,540.07764,1155.8094,538.1171,1135.7284C536.40936,1118.2278,520.6756,1105.4067,503.09235,1105.4067L263.5722,1105.407C260.0766,1105.4067,257.24304,1102.5729,257.24304,1099.0779L257.24304,1099.0785C257.24304,1095.5822,260.0766,1092.7491,263.5722,1092.7491L502.6538,1092.7499C528.0324,1092.7496,550.1624,1112.3064,550.92365,1137.6729C551.7111,1163.9214,530.66693,1185.4468,504.59753,1185.4465L263.57214,1185.4465C260.0765,1185.4465,257.24298,1182.6129,257.24298,1179.117L257.24298,1179.113C257.24298,1175.6184,260.0765,1172.7848,263.57214,1172.7848L504.594,1172.7858 Z"/>
</g>
<g style="fill:rgb(235,240,243); fill-opacity:1.0; stroke-linejoin: miter">
<path d="M538.1171,1135.7289C540.07825,1155.8094,524.2799,1172.7848,504.594,1172.7845L264.77316,1172.7848C275.22586,1150.3252,275.226,1127.8668,264.77322,1105.407L503.09192,1105.4078C520.67676,1105.4078,536.40936,1118.2278,538.1171,1135.7289 Z"/>
</g>
<g style="fill:rgb(225,230,233); fill-opacity:1.0; stroke-linejoin: miter">
<path d="M517.437,1120.7766L270.224,1120.7766C269.99863,1119.8854,269.70474,1118.9956,269.44724,1118.1067L517.437,1118.1077L517.437,1120.7766 Z"/>
</g>
<g style="fill:rgb(225,230,233); fill-opacity:1.0; stroke-linejoin: miter">
<path d="M517.43695,1130.6014L272.11105,1130.6012C272.00522,1129.7102,271.78122,1128.8197,271.64426,1127.9304L517.43695,1127.9318L517.43695,1130.6014 Z"/>
</g>
<g style="fill:rgb(225,230,233); fill-opacity:1.0; stroke-linejoin: miter">
<path d="M517.43695,1140.431L272.53583,1140.431C272.5531,1139.5399,272.5531,1138.65,272.53583,1137.7607L517.43695,1137.7616L517.43695,1140.431 Z"/>
</g>
<g style="fill:rgb(225,230,233); fill-opacity:1.0; stroke-linejoin: miter">
<path d="M517.43695,1150.2614L271.64426,1150.261C271.7811,1149.3702,272.00522,1148.4792,272.11105,1147.5906L517.43695,1147.5922L517.43695,1150.2614 Z"/>
</g>
<g style="fill:rgb(225,230,233); fill-opacity:1.0; stroke-linejoin: miter">
<path d="M517.43695,1160.0867L269.44708,1160.0864C269.7053,1159.1948,269.99857,1158.3048,270.22394,1157.4161L517.43695,1157.4175L517.43695,1160.0867 Z"/>
</g>
<g style="fill:rgb(136,70,54); fill-opacity:1.0; stroke-linejoin: miter">
<path d="M293.4496,1266.0703C273.76358,1266.0708,257.96588,1249.0958,259.92645,1229.0146C261.63412,1211.514,277.36798,1198.693,294.9512,1198.693L534.4714,1198.693C537.967,1198.6927,540.8006,1195.8591,540.8006,1192.3639L540.8006,1192.3647C540.8006,1188.8684,537.967,1186.0352,534.4714,1186.0352L295.38974,1186.0361C270.0111,1186.0361,247.88113,1205.5928,247.11993,1230.9592C246.33246,1257.2079,267.37662,1278.7332,293.446,1278.7332L534.47144,1278.7325C537.96716,1278.7325,540.80066,1275.899,540.80066,1272.4032L540.80066,1272.3993C540.8006,1268.9044,537.9671,1266.0708,534.4714,1266.0708L293.4496,1266.072 Z"/>
</g>
<g style="fill:rgb(235,240,243); fill-opacity:1.0; stroke-linejoin: miter">
<path d="M259.92645,1229.0153C257.96533,1249.0958,273.76358,1266.071,293.4496,1266.0708L533.2704,1266.0708C522.8177,1243.6112,522.81757,1221.1528,533.2704,1198.693L294.9516,1198.6941C277.36673,1198.6941,261.63412,1211.514,259.92645,1229.0153 Z"/>
</g>
<g style="fill:rgb(225,230,233); fill-opacity:1.0; stroke-linejoin: miter">
<path d="M280.6065,1214.0629L527.8196,1214.0626C528.0449,1213.1714,528.33887,1212.2816,528.5963,1211.3927L280.6065,1211.394L280.6065,1214.0629 Z"/>
</g>
<g style="fill:rgb(225,230,233); fill-opacity:1.0; stroke-linejoin: miter">
<path d="M280.60663,1223.8877L525.93256,1223.8872C526.0383,1222.9962,526.2623,1222.1057,526.3993,1221.2164L280.60663,1221.218L280.60663,1223.8877 Z"/>
</g>
<g style="fill:rgb(225,230,233); fill-opacity:1.0; stroke-linejoin: miter">
<path d="M280.60663,1233.7173L525.5078,1233.7173C525.4905,1232.8263,525.4905,1231.936,525.5078,1231.0468L280.60663,1231.0479L280.60663,1233.7173 Z"/>
</g>
<g style="fill:rgb(225,230,233); fill-opacity:1.0; stroke-linejoin: miter">
<path d="M280.60663,1243.5476L526.3993,1243.5474C526.26245,1242.6562,526.0383,1241.7653,525.93256,1240.8766L280.60663,1240.8784L280.60663,1243.5476 Z"/>
</g>
<g style="fill:rgb(225,230,233); fill-opacity:1.0; stroke-linejoin: miter">
<path d="M280.60663,1253.3729L528.59656,1253.3724C528.3382,1252.4811,528.04504,1251.5908,527.8196,1250.7021L280.60663,1250.7037L280.60663,1253.3729 Z"/>
</g>
<g style="fill:rgb(83,93,102); fill-opacity:1.0; stroke-linejoin: miter">
<path d="M296.182,1357.8468C276.49606,1357.8473,260.69833,1340.8723,262.65884,1320.7913C264.3666,1303.2909,280.10037,1290.4698,297.68362,1290.4696L537.20386,1290.4697C540.69946,1290.4695,543.533,1287.6356,543.533,1284.1404L543.533,1284.1411C543.533,1280.6449,540.69946,1277.8119,537.20386,1277.8119L298.12216,1277.8127C272.7435,1277.8127,250.61356,1297.3695,249.8523,1322.736C249.06482,1348.9843,270.10904,1370.51,296.1784,1370.5096L537.20386,1370.509C540.6996,1370.509,543.533,1367.6757,543.533,1364.1797L543.533,1364.1758C543.533,1360.6808,540.6996,1357.8475,537.20386,1357.8475L296.182,1357.8486 Z"/>
</g>
<g style="fill:rgb(235,240,243); fill-opacity:1.0; stroke-linejoin: miter">
<path d="M262.65884,1320.7917C260.69775,1340.8723,276.49606,1357.8477,296.182,1357.8473L536.00287,1357.8475C525.5502,1335.3877,525.5501,1312.9292,536.00287,1290.4697L297.68408,1290.471C280.0992,1290.471,264.3666,1303.2909,262.65884,1320.7917 Z"/>
</g>
<g style="fill:rgb(225,230,233); fill-opacity:1.0; stroke-linejoin: miter">
<path d="M283.339,1305.8397L530.55206,1305.8391C530.7774,1304.9481,531.07135,1304.0583,531.3288,1303.1694L283.339,1303.1708L283.339,1305.8397 Z"/>
</g>
<g style="fill:rgb(225,230,233); fill-opacity:1.0; stroke-linejoin: miter">
<path d="M283.33905,1315.6643L528.66504,1315.664C528.7708,1314.773,528.9949,1313.8821,529.1318,1312.9929L283.33905,1312.9949L283.33905,1315.6643 Z"/>
</g>
<g style="fill:rgb(225,230,233); fill-opacity:1.0; stroke-linejoin: miter">
<path d="M283.33905,1325.4939L528.2403,1325.4938C528.2229,1324.6027,528.2229,1323.7124,528.2403,1322.8232L283.33905,1322.8247L283.33905,1325.4939 Z"/>
</g>
<g style="fill:rgb(225,230,233); fill-opacity:1.0; stroke-linejoin: miter">
<path d="M283.33905,1335.3245L529.1318,1335.324C528.99493,1334.433,528.7708,1333.5417,528.66504,1332.6531L283.33905,1332.655L283.33905,1335.3245 Z"/>
</g>
<g style="fill:rgb(225,230,233); fill-opacity:1.0; stroke-linejoin: miter">
<path d="M283.33905,1345.1495L531.32904,1345.1488C531.0707,1344.2576,530.7775,1343.3673,530.55206,1342.4786L283.33905,1342.4806L283.33905,1345.1495 Z"/>
</g>
<g style="fill:rgb(129,198,101); fill-opacity:1.0; stroke-linejoin: miter">
<path d="M509.60492,1450.6769C529.2907,1450.6774,545.0885,1433.7024,543.12805,1413.6213C541.4202,1396.1212,525.6865,1383.3002,508.10315,1383.2997L268.58295,1383.3003C265.08734,1383.2998,262.25372,1380.4664,262.25372,1376.9712L262.25372,1376.9718C262.25372,1373.4757,265.08734,1370.6421,268.58295,1370.6421L507.66473,1370.6431C533.04333,1370.6431,555.17334,1390.1996,555.9346,1415.5663C556.722,1441.8143,535.67786,1463.3403,509.60834,1463.3397L268.58295,1463.3398C265.0872,1463.3398,262.25372,1460.506,262.25372,1457.0105L262.25372,1457.0066C262.25372,1453.5117,265.0872,1450.6781,268.58295,1450.6781L509.60492,1450.6787 Z"/>
</g>
<g style="fill:rgb(235,240,243); fill-opacity:1.0; stroke-linejoin: miter">
<path d="M543.12805,1413.6218C545.0892,1433.7024,529.2907,1450.678,509.60492,1450.6774L269.7839,1450.6781C280.2366,1428.2185,280.2367,1405.7601,269.7839,1383.3003L508.10278,1383.301C525.6876,1383.301,541.4202,1396.1212,543.12805,1413.6218 Z"/>
</g>
<g style="fill:rgb(225,230,233); fill-opacity:1.0; stroke-linejoin: miter">
<path d="M522.44794,1398.6698L275.23468,1398.6699C275.00937,1397.7787,274.71542,1396.8889,274.45798,1395.9998L522.44794,1396.0009L522.44794,1398.6698 Z"/>
</g>
<g style="fill:rgb(225,230,233); fill-opacity:1.0; stroke-linejoin: miter">
<path d="M522.44775,1408.4944L277.12173,1408.4945C277.01596,1407.6035,276.7919,1406.713,276.655,1405.8237L522.44775,1405.825L522.44775,1408.4944 Z"/>
</g>
<g style="fill:rgb(225,230,233); fill-opacity:1.0; stroke-linejoin: miter">
<path d="M522.44775,1418.324L277.54648,1418.3246C277.56384,1417.4332,277.56384,1416.5433,277.54648,1415.654L522.44775,1415.655L522.44775,1418.324 Z"/>
</g>
<g style="fill:rgb(225,230,233); fill-opacity:1.0; stroke-linejoin: miter">
<path d="M522.44775,1428.1548L276.655,1428.1543C276.79184,1427.2635,277.01596,1426.3726,277.12173,1425.4839L522.44775,1425.4851L522.44775,1428.1548 Z"/>
</g>
<g style="fill:rgb(225,230,233); fill-opacity:1.0; stroke-linejoin: miter">
<path d="M522.44775,1437.9796L274.4577,1437.9797C274.7161,1437.0881,275.00925,1436.1981,275.23468,1435.3094L522.44775,1435.3107L522.44775,1437.9796 Z"/>
</g>
<g>
<g style="fill:rgb(49,52,64); fill-opacity:1.0; stroke-linejoin: miter">
<path d="M727.14435,1206.4458L730.91656,1205.7867L734.68866,1205.1277Q734.2382,1202.5496,733.78784,1199.972Q730.0158,1200.6312,726.2436,1201.2902Q726.6939,1203.8679,727.14435,1206.4458"/>
</g>
<g style="fill:rgb(63,67,79); fill-opacity:1.0; stroke-linejoin: miter">
<path d="M722.81213,1211.1189L731.5804,1209.5869L740.34863,1208.0547Q739.80695,1204.9548,739.2654,1201.8547Q730.4972,1203.3867,721.7287,1204.9186Q722.27045,1208.0187,722.81213,1211.1189"/>
</g>
<g style="fill:rgb(41,43,55); fill-opacity:1.0; stroke-linejoin: miter">
<path d="M722.34656,1222.7343L733.40393,1220.8022L744.46155,1218.8704Q743.2272,1211.8058,741.9929,1204.7417Q730.9354,1206.6733,719.87805,1208.6055Q721.1123,1215.6696,722.34656,1222.7343"/>
</g>
<g style="fill:rgb(253,192,15); fill-opacity:1.0; stroke-linejoin: miter">
<path d="M741.75336,1268.9312C730.89777,1270.8276,720.49255,1263.538,718.5879,1252.636C718.51886,1252.2417,718.48016,1251.7467,718.4414,1251.2513C718.27277,1248.5078,718.64984,1245.7408,719.5354,1243.1476C720.4774,1240.33,721.8882,1236.0914,723.06964,1232.7295C723.61096,1231.1766,724.61316,1229.1134,723.368,1223.355L733.4814,1221.5875L743.6182,1219.8169C744.40344,1225.6796,746.0418,1227.2578,747.0777,1228.5353C749.3292,1231.2971,752.08966,1234.783,753.93134,1237.1145C755.6477,1239.277,756.94073,1241.7521,757.7125,1244.39C757.84393,1244.8693,757.97534,1245.3481,758.0444,1245.7426C759.94904,1256.6447,752.6091,1267.0343,741.75336,1268.9312 Z"/>
</g>
<g style="fill:rgb(226,163,5); fill-opacity:1.0; stroke-linejoin: miter">
<path d="M727.3769,1222.6305L723.3638,1223.3313C724.61316,1229.1134,723.6069,1231.1536,723.0656,1232.7063C721.88416,1236.0684,720.4693,1240.2834,719.52734,1243.1013C718.6458,1245.7177,718.26874,1248.4845,718.4373,1251.2281C718.4761,1251.7235,718.5148,1252.2184,718.5837,1252.6128C719.91705,1260.2443,725.4098,1266.0972,732.2947,1268.2888C727.2148,1265.2085,723.4189,1260.0388,722.3165,1253.7296C722.2436,1253.312,722.20087,1252.7937,722.1771,1252.2478C721.9802,1249.342,722.3985,1246.4006,723.3253,1243.633C724.3317,1240.6365,725.8411,1236.1417,727.083,1232.5781C727.6355,1230.9517,728.706,1228.7329,727.3769,1222.6305 Z"/>
</g>
<g style="fill:rgb(63,67,79); fill-opacity:1.0; stroke-linejoin: miter">
<path d="M744.87646,1217.8519C744.8237,1217.5503,744.5514,1217.359,744.2498,1217.4117L722.0743,1221.286C721.77264,1221.3386,721.5812,1221.6111,721.6339,1221.9127L721.83246,1223.0493C721.8852,1223.3508,722.1576,1223.5424,722.4592,1223.4897L744.6116,1219.6191C744.91315,1219.5667,745.1046,1219.2943,745.0519,1218.9927L744.8534,1217.856 Z"/>
</g>
<g style="fill:rgb(63,67,79); fill-opacity:1.0; stroke-linejoin: miter">
<path d="M743.807,1212.1873C743.7543,1211.8856,743.48193,1211.6942,743.18036,1211.747L721.00464,1215.6212C720.7032,1215.6741,720.5117,1215.9465,720.5646,1216.2482L720.76306,1217.3849C720.81573,1217.6863,721.0882,1217.8778,721.38983,1217.8253L743.5422,1213.9546C743.8436,1213.9021,744.03503,1213.6294,743.9824,1213.328L743.7839,1212.1913 Z"/>
</g>
<g style="fill:rgb(63,67,79); fill-opacity:1.0; stroke-linejoin: miter">
<path d="M743.2111,1208.7772C743.1587,1208.476,742.8861,1208.2845,742.58466,1208.3373L720.4089,1212.2114C720.10736,1212.2643,719.9161,1212.5367,719.96875,1212.8383L720.16724,1213.975C720.2199,1214.2765,720.49243,1214.4679,720.7941,1214.4153L742.9464,1210.5447C743.248,1210.4923,743.43945,1210.2198,743.3866,1209.9181L743.18805,1208.7814 Z"/>
</g>
<g style="fill:rgb(254,217,111); fill-opacity:1.0; stroke-linejoin: miter">
<path d="M753.3695,1260.3042C748.7525,1266.4415,741.19946,1267.4026,740.89386,1267.4321C740.0274,1267.5355,739.2482,1266.9066,739.14886,1266.0637C739.0451,1265.1973,739.674,1264.4181,740.5172,1264.3186C740.5868,1264.3063,747.0415,1263.4893,750.8654,1258.4229C753.3865,1255.0663,754.184,1250.6001,753.2699,1245.0945C753.1361,1244.329,753.58344,1243.6053,754.3054,1243.3597C754.39404,1243.3204,754.4868,1243.3042,754.5564,1243.292C755.41486,1243.1422,756.2089,1243.7203,756.35895,1244.5786C757.427,1250.9658,756.41547,1256.2579,753.3695,1260.3042 Z"/>
</g>
</g>
<g>
<g style="fill:rgb(49,52,64); fill-opacity:1.0; stroke-linejoin: miter">
<path d="M735.61163,1294.4927L739.4409,1294.4928L743.27014,1294.4928Q743.2702,1291.876,743.2702,1289.2593Q739.4409,1289.2593,735.61163,1289.2592Q735.61163,1291.8759,735.61163,1294.4927"/>
</g>
<g style="fill:rgb(63,67,79); fill-opacity:1.0; stroke-linejoin: miter">
<path d="M730.53973,1298.3503L739.44086,1298.3503L748.3419,1298.3503Q748.3419,1295.2034,748.3419,1292.0564Q739.4409,1292.0564,730.53973,1292.0562Q730.53973,1295.2032,730.53973,1298.3503"/>
</g>
<g style="fill:rgb(41,43,55); fill-opacity:1.0; stroke-linejoin: miter">
<path d="M728.0821,1309.7124L739.30695,1309.7125L750.5319,1309.7125Q750.53186,1302.5409,750.5318,1295.3696Q739.30695,1295.3695,728.0821,1295.3694Q728.0821,1302.5408,728.0821,1309.7124"/>
</g>
<g style="fill:rgb(253,192,15); fill-opacity:1.0; stroke-linejoin: miter">
<path d="M739.24817,1358.5604C728.22784,1358.5603,719.2327,1349.5885,719.2327,1338.5212C719.23267,1338.1208,719.27985,1337.6263,719.32684,1337.1318C719.63293,1334.4003,720.48065,1331.7394,721.7993,1329.3375C723.2122,1326.7238,725.3315,1322.7913,727.074,1319.683C727.8746,1318.2466,729.2168,1316.3864,728.9813,1310.4995L739.24805,1310.4994L749.53827,1310.4996C749.30286,1316.4102,750.6451,1318.2467,751.4457,1319.6832C753.1882,1322.7915,755.30743,1326.7003,756.72034,1329.3141C758.03894,1331.7395,758.8867,1334.4005,759.1929,1337.132C759.2399,1337.6265,759.28705,1338.121,759.28705,1338.5214C759.28705,1349.5887,750.2683,1358.5604,739.24817,1358.5604 Z"/>
</g>
<g style="fill:rgb(226,163,5); fill-opacity:1.0; stroke-linejoin: miter">
<path d="M733.05505,1310.476L728.9813,1310.4755C729.2168,1316.3864,727.8746,1318.2231,727.074,1319.6594C725.3315,1322.7678,723.2122,1326.6766,721.7993,1329.2904C720.48065,1331.716,719.63293,1334.3767,719.32684,1337.1083C719.27985,1337.6029,719.23267,1338.0973,719.2327,1338.4976C719.23267,1346.2448,723.6361,1352.9558,730.041,1356.2997C725.567,1352.3907,722.7177,1346.6451,722.7177,1340.2401C722.7177,1339.8163,722.76483,1339.2983,722.83545,1338.7566C723.14154,1335.8602,724.05994,1333.0345,725.44916,1330.4679C726.9563,1327.6892,729.2168,1323.5212,731.0535,1320.2246C731.8777,1318.7175,733.3141,1316.716,733.05505,1310.476 Z"/>
</g>
<g style="fill:rgb(63,67,79); fill-opacity:1.0; stroke-linejoin: miter">
<path d="M751.11597,1308.7806C751.11597,1308.4745,750.8805,1308.239,750.57434,1308.239L728.063,1308.2386C727.75684,1308.2388,727.52136,1308.4744,727.52136,1308.7805L727.52136,1309.9342C727.52136,1310.2404,727.75684,1310.476,728.063,1310.476L750.55084,1310.476C750.85693,1310.4761,751.0924,1310.2406,751.0924,1309.9344L751.0924,1308.7806 Z"/>
</g>
<g style="fill:rgb(63,67,79); fill-opacity:1.0; stroke-linejoin: miter">
<path d="M751.0375,1303.0165C751.0375,1302.7103,750.802,1302.4749,750.49585,1302.4749L727.98444,1302.4745C727.6783,1302.4747,727.4428,1302.7102,727.4429,1303.0164L727.4428,1304.1702C727.4428,1304.4763,727.67834,1304.7119,727.98444,1304.7119L750.4723,1304.7118C750.7784,1304.712,751.0139,1304.4764,751.01385,1304.1703L751.0139,1303.0165 Z"/>
</g>
<g style="fill:rgb(63,67,79); fill-opacity:1.0; stroke-linejoin: miter">
<path d="M751.0375,1299.5549C751.0375,1299.2489,750.80194,1299.0133,750.49585,1299.0133L727.98444,1299.013C727.67834,1299.0132,727.4429,1299.2487,727.4429,1299.5548L727.4428,1300.7086C727.4428,1301.0148,727.6783,1301.2502,727.98444,1301.2502L750.4723,1301.2501C750.77844,1301.2505,751.0139,1301.015,751.0139,1300.7087L751.0139,1299.5549 Z"/>
</g>
<g style="fill:rgb(254,217,111); fill-opacity:1.0; stroke-linejoin: miter">
<path d="M752.17566,1352.0613C746.57135,1357.3125,738.9656,1356.9592,738.6594,1356.9357C737.78815,1356.8884,737.12885,1356.135,737.176,1355.2872C737.22296,1354.4159,737.97656,1353.7567,738.8242,1353.8036C738.8949,1353.8036,745.39404,1354.1099,750.03284,1349.7771C753.09406,1346.9043,754.6482,1342.6421,754.6953,1337.0613C754.6953,1336.2842,755.26044,1335.6484,756.014,1335.5308C756.1081,1335.5072,756.2023,1335.5072,756.27295,1335.5072C757.1442,1335.5072,757.8271,1336.2136,757.8271,1337.085C757.77997,1343.5604,755.8726,1348.5997,752.17566,1352.0613 Z"/>
</g>
</g>
<g>
<g style="fill:rgb(49,52,64); fill-opacity:1.0; stroke-linejoin: miter">
<path d="M728.79047,1397.1624L731.55975,1394.5177L734.32916,1391.873Q732.52185,1389.9805,730.7147,1388.0881Q727.9453,1390.7328,725.176,1393.3776Q726.9832,1395.2698,728.79047,1397.1624"/>
</g>
<g style="fill:rgb(63,67,79); fill-opacity:1.0; stroke-linejoin: miter">
<path d="M727.78674,1403.4551L734.224,1397.3075L740.6613,1391.1602Q738.48785,1388.8843,736.3144,1386.6084Q729.87714,1392.7556,723.4398,1398.9031Q725.61334,1401.1791,727.78674,1403.4551"/>
</g>
<g style="fill:rgb(41,43,55); fill-opacity:1.0; stroke-linejoin: miter">
<path d="M733.8564,1413.3694L741.9743,1405.6172L750.0923,1397.8646Q745.1392,1392.6785,740.1864,1387.4922Q732.0684,1395.2443,723.9507,1402.9966Q728.9035,1408.1829,733.8564,1413.3694"/>
</g>
<g style="fill:rgb(253,192,15); fill-opacity:1.0; stroke-linejoin: miter">
<path d="M775.6677,1440.9847C767.6979,1448.5957,754.9964,1448.3197,747.35284,1440.3157C747.0765,1440.0262,746.769,1439.6361,746.46155,1439.246C744.79626,1437.0588,743.5718,1434.5492,742.8665,1431.9016C742.0831,1429.0353,740.89984,1424.7279,740.0134,1421.2764C739.60034,1419.6846,739.28644,1417.4125,735.0504,1413.3175L742.47516,1406.2269L749.9172,1399.1205C753.829,1403.5575,756.06805,1403.9586,757.63916,1404.4447C761.0462,1405.4891,765.2784,1406.8523,768.1053,1407.7668C770.73395,1408.6102,773.18475,1409.9492,775.2927,1411.713C775.6683,1412.0382,776.0437,1412.3634,776.32025,1412.6528C783.96387,1420.6569,783.6377,1433.3739,775.6677,1440.9847 Z"/>
</g>
<g style="fill:rgb(226,163,5); fill-opacity:1.0; stroke-linejoin: miter">
<path d="M737.9801,1410.4872L735.0338,1413.3002C739.28644,1417.4125,739.58417,1419.6676,739.99713,1421.2594C740.88367,1424.7108,742.0505,1429.0015,742.834,1431.8676C743.5555,1434.5322,744.77997,1437.0419,746.44525,1439.229C746.7528,1439.6191,747.06024,1440.0093,747.3367,1440.2987C752.687,1445.9016,760.5064,1447.7136,767.4479,1445.7086C761.5127,1445.9716,755.4838,1443.784,751.06036,1439.1521C750.7677,1438.8456,750.44403,1438.4384,750.1211,1437.9978C748.34186,1435.6917,747.0548,1433.0142,746.2866,1430.1982C745.45764,1427.1478,744.21387,1422.5725,743.2655,1418.9198C742.82074,1417.2606,742.4771,1414.8212,737.9801,1410.4872 Z"/>
</g>
<g style="fill:rgb(63,67,79); fill-opacity:1.0; stroke-linejoin: miter">
<path d="M749.87103,1396.7875C749.6595,1396.5662,749.32654,1396.5583,749.1052,1396.7698L732.82477,1412.3169C732.6035,1412.5282,732.5958,1412.8613,732.8074,1413.0828L733.6042,1413.9172C733.81555,1414.1385,734.1485,1414.1462,734.3699,1413.9348L750.63306,1398.4038C750.85455,1398.1925,750.8623,1397.8597,750.6509,1397.6384L749.85394,1396.8038 Z"/>
</g>
<g style="fill:rgb(63,67,79); fill-opacity:1.0; stroke-linejoin: miter">
<path d="M745.8332,1392.673C745.6218,1392.4517,745.2889,1392.4441,745.06744,1392.6555L728.78723,1408.2025C728.5658,1408.4141,728.5582,1408.747,728.7696,1408.9684L729.5664,1409.8027C729.77795,1410.0242,730.11084,1410.0319,730.3323,1409.8207L746.59534,1394.2896C746.8169,1394.0782,746.8246,1393.7451,746.61304,1393.5238L745.8162,1392.6893 Z"/>
</g>
<g style="fill:rgb(63,67,79); fill-opacity:1.0; stroke-linejoin: miter">
<path d="M743.4425,1390.1694C743.23126,1389.9481,742.8981,1389.9406,742.67676,1390.1519L726.39655,1405.699C726.17505,1405.9104,726.1675,1406.2434,726.3789,1406.465L727.1757,1407.2993C727.38727,1407.5208,727.72003,1407.5283,727.9416,1407.3169L744.2046,1391.7861C744.4262,1391.5747,744.434,1391.2418,744.22235,1391.0204L743.42554,1390.1857 Z"/>
</g>
<g style="fill:rgb(254,217,111); fill-opacity:1.0; stroke-linejoin: miter">
<path d="M780.5287,1427.3564C780.1022,1435.0247,774.35754,1440.0221,774.12,1440.2164C773.4572,1440.7838,772.4601,1440.6945,771.90875,1440.0488C771.3408,1439.3862,771.4306,1438.3889,772.0759,1437.8375C772.12714,1437.7887,777.03894,1433.5217,777.40125,1427.1844C777.63104,1422.9927,775.81165,1418.837,771.99115,1414.7684C771.4545,1414.2062,771.42413,1413.3562,771.8877,1412.7506C771.93964,1412.6686,772.00775,1412.6035,772.0589,1412.5547C772.68896,1411.9531,773.67084,1411.9923,774.2724,1412.6226C778.7106,1417.3381,780.81146,1422.2998,780.5287,1427.3564 Z"/>
</g>
</g>
<g>
<g style="fill:rgb(49,52,64); fill-opacity:1.0; stroke-linejoin: miter">
<path d="M845.7581,1397.1925L848.3888,1399.9752L851.01935,1402.7578Q852.92096,1400.9602,854.8225,1399.1628Q852.19196,1396.38,849.56116,1393.5972Q847.66,1395.3949,845.7581,1397.1925"/>
</g>
<g style="fill:rgb(63,67,79); fill-opacity:1.0; stroke-linejoin: miter">
<path d="M839.4707,1396.1569L845.58563,1402.625L851.7003,1409.0934Q853.98694,1406.9316,856.27386,1404.7699Q850.1594,1398.3014,844.04474,1391.833Q841.7579,1393.9951,839.4707,1396.1569"/>
</g>
<g style="fill:rgb(41,43,55); fill-opacity:1.0; stroke-linejoin: miter">
<path d="M829.526,1402.176L837.2369,1410.3333L844.94806,1418.4902Q850.1593,1413.5637,855.3706,1408.6371Q847.6596,1400.48,839.94867,1392.3234Q834.73724,1397.2495,829.526,1402.176"/>
</g>
<g style="fill:rgb(253,192,15); fill-opacity:1.0; stroke-linejoin: miter">
<path d="M801.69867,1443.8475C794.1281,1435.8389,794.4686,1423.1388,802.5115,1415.5359C802.8022,1415.2607,803.19415,1414.9556,803.5858,1414.6499C805.7811,1412.9954,808.2971,1411.7838,810.94836,1411.0919C813.8185,1410.3232,818.13196,1409.1617,821.588,1408.293C823.18176,1407.8878,825.45544,1407.5856,829.57166,1403.3702L836.6246,1410.8307L843.6933,1418.3087C839.2364,1422.1979,838.8239,1424.435,838.32983,1426.0035C837.2681,1429.4054,835.8836,1433.6305,834.9547,1436.4529C834.098,1439.0773,832.7467,1441.5214,830.9723,1443.6204C830.64526,1443.9941,830.3182,1444.3682,830.02716,1444.6432C821.98444,1452.2462,809.269,1451.8558,801.69867,1443.8475 Z"/>
</g>
<g style="fill:rgb(226,163,5); fill-opacity:1.0; stroke-linejoin: miter">
<path d="M832.3872,1406.3142L829.5892,1403.3538C825.45544,1407.5856,823.19885,1407.8717,821.605,1408.2767C818.1492,1409.1458,813.85266,1410.2906,810.98254,1411.0597C808.3142,1411.7677,805.7982,1412.9791,803.6029,1414.6338C803.211,1414.9392,802.8193,1415.2448,802.52856,1415.5198C796.89844,1420.8417,795.04675,1428.652,797.0165,1435.6035C796.78357,1429.667,799.0017,1423.649,803.65625,1419.2493C803.96423,1418.9581,804.3731,1418.6365,804.8152,1418.3156C807.13043,1416.548,809.8144,1415.2745,812.6342,1414.5205C815.6888,1413.7073,820.2705,1412.4866,823.928,1411.5568C825.5893,1411.1205,828.0305,1410.7891,832.3872,1406.3142 Z"/>
</g>
<g style="fill:rgb(63,67,79); fill-opacity:1.0; stroke-linejoin: miter">
<path d="M846.0263,1418.2744C846.2488,1418.0641,846.2582,1417.7312,846.04785,1417.5085L830.5836,1401.1499C830.3735,1400.9275,830.04034,1400.918,829.81757,1401.1284L828.9793,1401.921C828.75696,1402.1315,828.74756,1402.4642,828.9578,1402.6864L844.4061,1419.0283C844.61633,1419.2509,844.9491,1419.2601,845.1714,1419.0499L846.01,1418.2572 Z"/>
</g>
<g style="fill:rgb(63,67,79); fill-opacity:1.0; stroke-linejoin: miter">
<path d="M850.1613,1414.2577C850.38354,1414.047,850.39294,1413.7142,850.1827,1413.492L834.7183,1397.1332C834.50806,1396.9109,834.17505,1396.9015,833.9526,1397.1117L833.1142,1397.9043C832.89154,1398.1144,832.88214,1398.4474,833.0924,1398.6699L848.54083,1415.0114C848.7509,1415.234,849.084,1415.2434,849.30646,1415.0332L850.1451,1414.2406 Z"/>
</g>
<g style="fill:rgb(63,67,79); fill-opacity:1.0; stroke-linejoin: miter">
<path d="M852.67676,1411.8795C852.8991,1411.6693,852.9084,1411.3362,852.6981,1411.1139L837.2339,1394.7552C837.0237,1394.5328,836.6906,1394.5234,836.468,1394.7338L835.62976,1395.5262C835.407,1395.7367,835.3979,1396.0695,835.6082,1396.2922L851.0563,1412.6334C851.26654,1412.8562,851.5994,1412.8655,851.82184,1412.6549L852.6606,1411.8624 Z"/>
</g>
<g style="fill:rgb(254,217,111); fill-opacity:1.0; stroke-linejoin: miter">
<path d="M815.30225,1448.7771C807.63635,1448.3119,802.66785,1442.5419,802.4749,1442.3036C801.9108,1441.638,802.0053,1440.6412,802.65356,1440.093C803.31915,1439.5286,804.316,1439.6232,804.864,1440.2712C804.9126,1440.3228,809.1547,1445.2561,815.49005,1445.6506C819.6807,1445.9016,823.8455,1444.1033,827.93353,1440.3032C828.4985,1439.7695,829.3487,1439.7437,829.95184,1440.2101C830.0336,1440.2623,830.0983,1440.3307,830.14703,1440.3822C830.7454,1441.0154,830.7013,1441.9972,830.0677,1442.5953C825.32965,1447.0096,820.35754,1449.0854,815.30225,1448.7771 Z"/>
</g>
</g>
</g>
</svg>